<svg width="624" height="351" xmlns="http://www.w3.org/2000/svg" xmlns:xlink="http://www.w3.org/1999/xlink" xml:space="preserve" overflow="hidden"><g><path d="M0 0 624 0 624 351 0 351Z" fill="#FFFFFF"/><text fill="#333333" font-family="Calibri,Calibri_MSFontService,sans-serif" font-weight="400" font-size="11" transform="matrix(0.65 0 0 0.65 573.998 340)">NREL </text><text fill="#333333" font-family="Calibri,Calibri_MSFontService,sans-serif" font-weight="400" font-size="11" transform="matrix(0.65 0 0 0.65 590.248 340)">|</text><text fill="#333333" font-family="Calibri,Calibri_MSFontService,sans-serif" font-weight="400" font-size="11" transform="matrix(0.65 0 0 0.65 603.79 340)">1</text><path d="M384.475 309.075 466.375 309.075M384.475 291.525 466.375 291.525M384.475 274.625 466.375 274.625M384.475 257.725 466.375 257.725M384.475 240.175 466.375 240.175M384.475 223.275 466.375 223.275M384.475 206.375 466.375 206.375M384.475 189.475 466.375 189.475M384.475 171.925 466.375 171.925M384.475 155.025 466.375 155.025M384.475 138.125 466.375 138.125M384.475 120.575 466.375 120.575M384.475 103.675 466.375 103.675M384.475 86.775 466.375 86.775" stroke="#E0E0E0" stroke-width="0.65" stroke-linejoin="round" stroke-miterlimit="10" fill="none"/><path d="M389.35 271.7 462.15 271.7 462.15 308.75 389.35 308.75Z" fill="#006032"/><path d="M389.35 267.15 462.15 267.15 462.15 271.7 389.35 271.7Z" fill="#67923D"/><path d="M389.35 262.6 462.15 262.6 462.15 267.15 389.35 267.15Z" fill="#9FBC2E"/><path d="M389.35 257.4 462.15 257.4 462.15 262.6 389.35 262.6Z" fill="#007042"/><path d="M389.35 252.2 462.15 252.2 462.15 257.4 389.35 257.4Z" fill="#7CA588"/><path d="M389.35 247.65 462.15 247.65 462.15 252.2 389.35 252.2Z" fill="#5F8039"/><path d="M389.35 241.8 462.15 241.8 462.15 247.65 389.35 247.65Z" fill="#87C663"/><path d="M389.35 236.6 462.15 236.6 462.15 241.8 389.35 241.8Z" fill="#17906A"/><path d="M389.35 230.1 462.15 230.1 462.15 236.6 389.35 236.6Z" fill="#12B57B"/><path d="M389.35 222.95 462.15 222.95 462.15 230.1 389.35 230.1Z" fill="#385B1E"/><path d="M389.35 213.85 462.15 213.85 462.15 222.95 389.35 222.95Z" fill="#8EB936"/><path d="M389.35 204.1 462.15 204.1 462.15 213.85 389.35 213.85Z" fill="#009444"/><path d="M389.35 194.35 462.15 194.35 462.15 204.1 389.35 204.1Z" fill="#007042"/><path d="M389.35 181.35 462.15 181.35 462.15 194.35 389.35 194.35Z" fill="#8B9E6C"/><path d="M389.35 168.35 462.15 168.35 462.15 181.35 389.35 181.35Z" fill="#5E7B38"/><path d="M389.35 154.7 462.15 154.7 462.15 168.35 389.35 168.35Z" fill="#7BC245"/><path d="M389.35 141.05 462.15 141.05 462.15 154.7 389.35 154.7Z" fill="#6A972D"/><path d="M389.35 126.75 462.15 126.75 462.15 141.05 389.35 141.05Z" fill="#B8C698"/><path d="M389.35 111.8 462.15 111.8 462.15 126.75 389.35 126.75Z" fill="#006032"/><path d="M389.35 92.3 462.15 92.3 462.15 111.8 389.35 111.8Z" fill="#009444"/><text fill="#333333" font-family="Calibri,Calibri_MSFontService,sans-serif" font-weight="400" font-size="12" transform="matrix(0.65 0 0 0.65 373.581 311)">0</text><text fill="#333333" font-family="Calibri,Calibri_MSFontService,sans-serif" font-weight="400" font-size="12" transform="matrix(0.65 0 0 0.65 365.677 294)">200</text><text fill="#333333" font-family="Calibri,Calibri_MSFontService,sans-serif" font-weight="400" font-size="12" transform="matrix(0.65 0 0 0.65 365.677 277)">400</text><text fill="#333333" font-family="Calibri,Calibri_MSFontService,sans-serif" font-weight="400" font-size="12" transform="matrix(0.65 0 0 0.65 365.677 259)">600</text><text fill="#333333" font-family="Calibri,Calibri_MSFontService,sans-serif" font-weight="400" font-size="12" transform="matrix(0.65 0 0 0.65 365.677 242)">800</text><text fill="#333333" font-family="Calibri,Calibri_MSFontService,sans-serif" font-weight="400" font-size="12" transform="matrix(0.65 0 0 0.65 359.78 226)">1</text><text fill="#333333" font-family="Calibri,Calibri_MSFontService,sans-serif" font-weight="400" font-size="12" transform="matrix(0.65 0 0 0.65 363.68 226)">,</text><text fill="#333333" font-family="Calibri,Calibri_MSFontService,sans-serif" font-weight="400" font-size="12" transform="matrix(0.65 0 0 0.65 365.63 226)">000</text><text fill="#333333" font-family="Calibri,Calibri_MSFontService,sans-serif" font-weight="400" font-size="12" transform="matrix(0.65 0 0 0.65 359.78 208)">1</text><text fill="#333333" font-family="Calibri,Calibri_MSFontService,sans-serif" font-weight="400" font-size="12" transform="matrix(0.65 0 0 0.65 363.68 208)">,</text><text fill="#333333" font-family="Calibri,Calibri_MSFontService,sans-serif" font-weight="400" font-size="12" transform="matrix(0.65 0 0 0.65 365.63 208)">200</text><text fill="#333333" font-family="Calibri,Calibri_MSFontService,sans-serif" font-weight="400" font-size="12" transform="matrix(0.65 0 0 0.65 359.78 191)">1</text><text fill="#333333" font-family="Calibri,Calibri_MSFontService,sans-serif" font-weight="400" font-size="12" transform="matrix(0.65 0 0 0.65 363.68 191)">,</text><text fill="#333333" font-family="Calibri,Calibri_MSFontService,sans-serif" font-weight="400" font-size="12" transform="matrix(0.65 0 0 0.65 365.63 191)">400</text><text fill="#333333" font-family="Calibri,Calibri_MSFontService,sans-serif" font-weight="400" font-size="12" transform="matrix(0.65 0 0 0.65 359.78 174)">1</text><text fill="#333333" font-family="Calibri,Calibri_MSFontService,sans-serif" font-weight="400" font-size="12" transform="matrix(0.65 0 0 0.65 363.68 174)">,</text><text fill="#333333" font-family="Calibri,Calibri_MSFontService,sans-serif" font-weight="400" font-size="12" transform="matrix(0.65 0 0 0.65 365.63 174)">600</text><text fill="#333333" font-family="Calibri,Calibri_MSFontService,sans-serif" font-weight="400" font-size="12" transform="matrix(0.65 0 0 0.65 359.78 157)">1</text><text fill="#333333" font-family="Calibri,Calibri_MSFontService,sans-serif" font-weight="400" font-size="12" transform="matrix(0.65 0 0 0.65 363.68 157)">,</text><text fill="#333333" font-family="Calibri,Calibri_MSFontService,sans-serif" font-weight="400" font-size="12" transform="matrix(0.65 0 0 0.65 365.63 157)">800</text><text fill="#333333" font-family="Calibri,Calibri_MSFontService,sans-serif" font-weight="400" font-size="12" transform="matrix(0.65 0 0 0.65 359.78 140)">2</text><text fill="#333333" font-family="Calibri,Calibri_MSFontService,sans-serif" font-weight="400" font-size="12" transform="matrix(0.65 0 0 0.65 363.68 140)">,</text><text fill="#333333" font-family="Calibri,Calibri_MSFontService,sans-serif" font-weight="400" font-size="12" transform="matrix(0.65 0 0 0.65 365.63 140)">000</text><text fill="#333333" font-family="Calibri,Calibri_MSFontService,sans-serif" font-weight="400" font-size="12" transform="matrix(0.65 0 0 0.65 359.78 123)">2</text><text fill="#333333" font-family="Calibri,Calibri_MSFontService,sans-serif" font-weight="400" font-size="12" transform="matrix(0.65 0 0 0.65 363.68 123)">,</text><text fill="#333333" font-family="Calibri,Calibri_MSFontService,sans-serif" font-weight="400" font-size="12" transform="matrix(0.65 0 0 0.65 365.63 123)">200</text><text fill="#333333" font-family="Calibri,Calibri_MSFontService,sans-serif" font-weight="400" font-size="12" transform="matrix(0.65 0 0 0.65 359.78 106)">2</text><text fill="#333333" font-family="Calibri,Calibri_MSFontService,sans-serif" font-weight="400" font-size="12" transform="matrix(0.65 0 0 0.65 363.68 106)">,</text><text fill="#333333" font-family="Calibri,Calibri_MSFontService,sans-serif" font-weight="400" font-size="12" transform="matrix(0.65 0 0 0.65 365.63 106)">400</text><text fill="#333333" font-family="Calibri,Calibri_MSFontService,sans-serif" font-weight="400" font-size="12" transform="matrix(0.65 0 0 0.65 359.78 88)">2</text><text fill="#333333" font-family="Calibri,Calibri_MSFontService,sans-serif" font-weight="400" font-size="12" transform="matrix(0.65 0 0 0.65 363.68 88)">,</text><text fill="#333333" font-family="Calibri,Calibri_MSFontService,sans-serif" font-weight="400" font-size="12" transform="matrix(0.65 0 0 0.65 365.63 88)">600</text><text fill="#333333" font-family="Calibri,Calibri_MSFontService,sans-serif" font-weight="400" font-size="13" transform="matrix(3.9801e-17 -0.65 0.65 3.9801e-17 351.462 266)">Annual Site Energy Consumption </text><text fill="#333333" font-family="Calibri,Calibri_MSFontService,sans-serif" font-weight="400" font-size="13" transform="matrix(3.9801e-17 -0.65 0.65 3.9801e-17 351.462 150)">(</text><text fill="#333333" font-family="Calibri,Calibri_MSFontService,sans-serif" font-weight="400" font-size="13" transform="matrix(3.9801e-17 -0.65 0.65 3.9801e-17 351.462 147)">TBtu</text><text fill="#333333" font-family="Calibri,Calibri_MSFontService,sans-serif" font-weight="400" font-size="13" transform="matrix(3.9801e-17 -0.65 0.65 3.9801e-17 351.462 131)">)</text><text font-family="Calibri,Calibri_MSFontService,sans-serif" font-weight="700" font-size="20" transform="matrix(0.65 0 0 0.65 380.981 72)">Not in ComStock</text><path d="M484.9 103.35 490.1 103.35 490.1 108.55 484.9 108.55Z" fill="#009444"/><text fill="#333333" font-family="Calibri,Calibri_MSFontService,sans-serif" font-weight="400" font-size="14" transform="matrix(0.65 0 0 0.65 492.138 109)">College</text><text fill="#333333" font-family="Calibri,Calibri_MSFontService,sans-serif" font-weight="400" font-size="14" transform="matrix(0.65 0 0 0.65 518.788 109)">/</text><text fill="#333333" font-family="Calibri,Calibri_MSFontService,sans-serif" font-weight="400" font-size="14" transform="matrix(0.65 0 0 0.65 522.038 109)">university</text><path d="M484.9 115.05 490.1 115.05 490.1 119.6 484.9 119.6Z" fill="#006032"/><text fill="#333333" font-family="Calibri,Calibri_MSFontService,sans-serif" font-weight="400" font-size="14" transform="matrix(0.65 0 0 0.65 492.138 120)">Religious worship</text><path d="M484.9 126.1 490.1 126.1 490.1 131.3 484.9 131.3Z" fill="#B8C698"/><text fill="#333333" font-family="Calibri,Calibri_MSFontService,sans-serif" font-weight="400" font-size="14" transform="matrix(0.65 0 0 0.65 492.138 131)">Other</text><path d="M484.9 137.8 490.1 137.8 490.1 142.35 484.9 142.35Z" fill="#6A972D"/><text fill="#333333" font-family="Calibri,Calibri_MSFontService,sans-serif" font-weight="400" font-size="14" transform="matrix(0.65 0 0 0.65 492.138 142)">Mixed</text><text fill="#333333" font-family="Calibri,Calibri_MSFontService,sans-serif" font-weight="400" font-size="14" transform="matrix(0.65 0 0 0.65 514.888 142)">-</text><text fill="#333333" font-family="Calibri,Calibri_MSFontService,sans-serif" font-weight="400" font-size="14" transform="matrix(0.65 0 0 0.65 517.488 142)">use office</text><path d="M484.9 148.85 490.1 148.85 490.1 154.05 484.9 154.05Z" fill="#7BC245"/><text fill="#333333" font-family="Calibri,Calibri_MSFontService,sans-serif" font-weight="400" font-size="14" transform="matrix(0.65 0 0 0.65 492.138 154)">Grocery store</text><text fill="#333333" font-family="Calibri,Calibri_MSFontService,sans-serif" font-weight="400" font-size="14" transform="matrix(0.65 0 0 0.65 542.188 154)">/</text><text fill="#333333" font-family="Calibri,Calibri_MSFontService,sans-serif" font-weight="400" font-size="14" transform="matrix(0.65 0 0 0.65 545.438 154)">food market</text><path d="M484.9 160.55 490.1 160.55 490.1 165.1 484.9 165.1Z" fill="#5E7B38"/><text fill="#333333" font-family="Calibri,Calibri_MSFontService,sans-serif" font-weight="400" font-size="14" transform="matrix(0.65 0 0 0.65 492.138 165)">Nursing home</text><text fill="#333333" font-family="Calibri,Calibri_MSFontService,sans-serif" font-weight="400" font-size="14" transform="matrix(0.65 0 0 0.65 542.838 165)">/</text><text fill="#333333" font-family="Calibri,Calibri_MSFontService,sans-serif" font-weight="400" font-size="14" transform="matrix(0.65 0 0 0.65 546.088 165)">assisted living</text><path d="M484.9 171.6 490.1 171.6 490.1 176.8 484.9 176.8Z" fill="#8B9E6C"/><text fill="#333333" font-family="Calibri,Calibri_MSFontService,sans-serif" font-weight="400" font-size="14" transform="matrix(0.65 0 0 0.65 492.138 177)">Recreation</text><path d="M484.9 183.3 490.1 183.3 490.1 187.85 484.9 187.85Z" fill="#007042"/><text fill="#333333" font-family="Calibri,Calibri_MSFontService,sans-serif" font-weight="400" font-size="14" transform="matrix(0.65 0 0 0.65 492.138 188)">Laboratory</text><path d="M484.9 194.35 490.1 194.35 490.1 199.55 484.9 199.55Z" fill="#009444"/><text fill="#333333" font-family="Calibri,Calibri_MSFontService,sans-serif" font-weight="400" font-size="14" transform="matrix(0.65 0 0 0.65 492.138 200)">Entertainment</text><text fill="#333333" font-family="Calibri,Calibri_MSFontService,sans-serif" font-weight="400" font-size="14" transform="matrix(0.65 0 0 0.65 546.088 200)">/</text><text fill="#333333" font-family="Calibri,Calibri_MSFontService,sans-serif" font-weight="400" font-size="14" transform="matrix(0.65 0 0 0.65 549.338 200)">culture</text><path d="M484.9 206.05 490.1 206.05 490.1 210.6 484.9 210.6Z" fill="#8EB936"/><text fill="#333333" font-family="Calibri,Calibri_MSFontService,sans-serif" font-weight="400" font-size="14" transform="matrix(0.65 0 0 0.65 492.138 211)">Vehicle service</text><text fill="#333333" font-family="Calibri,Calibri_MSFontService,sans-serif" font-weight="400" font-size="14" transform="matrix(0.65 0 0 0.65 545.438 211)">/</text><text fill="#333333" font-family="Calibri,Calibri_MSFontService,sans-serif" font-weight="400" font-size="14" transform="matrix(0.65 0 0 0.65 548.688 211)">repair shop</text><path d="M484.9 217.1 490.1 217.1 490.1 222.3 484.9 222.3Z" fill="#385B1E"/><text fill="#333333" font-family="Calibri,Calibri_MSFontService,sans-serif" font-weight="400" font-size="14" transform="matrix(0.65 0 0 0.65 492.138 222)">Other public assembly</text><path d="M484.9 228.8 490.1 228.8 490.1 233.35 484.9 233.35Z" fill="#12B57B"/><text fill="#333333" font-family="Calibri,Calibri_MSFontService,sans-serif" font-weight="400" font-size="14" transform="matrix(0.65 0 0 0.65 492.138 233)">Library</text><path d="M484.9 239.85 490.1 239.85 490.1 245.05 484.9 245.05Z" fill="#17906A"/><text fill="#333333" font-family="Calibri,Calibri_MSFontService,sans-serif" font-weight="400" font-size="14" transform="matrix(0.65 0 0 0.65 492.138 245)">Vehicle storage</text><text fill="#333333" font-family="Calibri,Calibri_MSFontService,sans-serif" font-weight="400" font-size="14" transform="matrix(0.65 0 0 0.65 548.038 245)">/</text><text fill="#333333" font-family="Calibri,Calibri_MSFontService,sans-serif" font-weight="400" font-size="14" transform="matrix(0.65 0 0 0.65 551.288 245)">maintenance</text><path d="M484.9 251.55 490.1 251.55 490.1 256.1 484.9 256.1Z" fill="#87C663"/><text fill="#333333" font-family="Calibri,Calibri_MSFontService,sans-serif" font-weight="400" font-size="14" transform="matrix(0.65 0 0 0.65 492.138 256)">Dormitory</text><text fill="#333333" font-family="Calibri,Calibri_MSFontService,sans-serif" font-weight="400" font-size="14" transform="matrix(0.65 0 0 0.65 529.838 256)">/</text><text fill="#333333" font-family="Calibri,Calibri_MSFontService,sans-serif" font-weight="400" font-size="14" transform="matrix(0.65 0 0 0.65 533.088 256)">fraternity</text><text fill="#333333" font-family="Calibri,Calibri_MSFontService,sans-serif" font-weight="400" font-size="14" transform="matrix(0.65 0 0 0.65 568.188 256)">/</text><text fill="#333333" font-family="Calibri,Calibri_MSFontService,sans-serif" font-weight="400" font-size="14" transform="matrix(0.65 0 0 0.65 571.438 256)">sorority</text><path d="M484.9 262.6 490.1 262.6 490.1 267.8 484.9 267.8Z" fill="#5F8039"/><text fill="#333333" font-family="Calibri,Calibri_MSFontService,sans-serif" font-weight="400" font-size="14" transform="matrix(0.65 0 0 0.65 492.138 268)">Other service</text><path d="M484.9 274.3 490.1 274.3 490.1 278.85 484.9 278.85Z" fill="#7CA588"/><text fill="#333333" font-family="Calibri,Calibri_MSFontService,sans-serif" font-weight="400" font-size="14" transform="matrix(0.65 0 0 0.65 492.138 279)">Refrigerated warehouse</text><path d="M484.9 285.35 490.1 285.35 490.1 290.55 484.9 290.55Z" fill="#007042"/><text fill="#333333" font-family="Calibri,Calibri_MSFontService,sans-serif" font-weight="400" font-size="14" transform="matrix(0.65 0 0 0.65 492.138 291)">Social</text><text fill="#333333" font-family="Calibri,Calibri_MSFontService,sans-serif" font-weight="400" font-size="14" transform="matrix(0.65 0 0 0.65 512.938 291)">/</text><text fill="#333333" font-family="Calibri,Calibri_MSFontService,sans-serif" font-weight="400" font-size="14" transform="matrix(0.65 0 0 0.65 516.188 291)">meeting</text><path d="M484.9 297.05 490.1 297.05 490.1 301.6 484.9 301.6Z" fill="#9FBC2E"/><text fill="#333333" font-family="Calibri,Calibri_MSFontService,sans-serif" font-weight="400" font-size="14" transform="matrix(0.65 0 0 0.65 492.138 302)">Convenience store</text><path d="M484.9 308.1 490.1 308.1 490.1 313.3 484.9 313.3Z" fill="#67923D"/><text fill="#333333" font-family="Calibri,Calibri_MSFontService,sans-serif" font-weight="400" font-size="14" transform="matrix(0.65 0 0 0.65 492.138 313)">Enclosed mall</text><path d="M484.9 319.8 490.1 319.8 490.1 324.35 484.9 324.35Z" fill="#006032"/><text fill="#333333" font-family="Calibri,Calibri_MSFontService,sans-serif" font-weight="400" font-size="14" transform="matrix(0.65 0 0 0.65 492.138 324)">Other</text><text fill="#333333" font-family="Calibri,Calibri_MSFontService,sans-serif" font-weight="400" font-size="14" transform="matrix(0.65 0 0 0.65 513.588 324)">*</text><text font-family="Calibri,Calibri_MSFontService,sans-serif" font-weight="700" font-size="15" transform="matrix(0.65 0 0 0.65 484.591 92)">Building Type</text><path d="M208.975 307.775 290.875 307.775M208.975 292.175 290.875 292.175M208.975 276.575 290.875 276.575M208.975 260.975 290.875 260.975M208.975 244.725 290.875 244.725M208.975 229.125 290.875 229.125M208.975 213.525 290.875 213.525M208.975 197.275 290.875 197.275M208.975 181.675 290.875 181.675M208.975 166.075 290.875 166.075M208.975 150.475 290.875 150.475M208.975 134.225 290.875 134.225M208.975 118.625 290.875 118.625M208.975 103.025 290.875 103.025M208.975 86.775 290.875 86.775" stroke="#E0E0E0" stroke-width="0.65" stroke-linejoin="round" stroke-miterlimit="10" fill="none"/><path d="M213.2 306.8 286.65 306.8 286.65 308.1 213.2 308.1Z" fill="#0053A5"/><path d="M213.2 302.9 286.65 302.9 286.65 306.8 213.2 306.8Z" fill="#5FA2D5"/><path d="M213.2 297.7 286.65 297.7 286.65 302.9 213.2 302.9Z" fill="#0089BC"/><path d="M213.2 291.2 286.65 291.2 286.65 297.7 213.2 297.7Z" fill="#6DCFF6"/><path d="M213.2 283.4 286.65 283.4 286.65 291.2 213.2 291.2Z" fill="#3372A9"/><path d="M213.2 274.3 286.65 274.3 286.65 283.4 213.2 283.4Z" fill="#00BBD6"/><path d="M213.2 264.55 286.65 264.55 286.65 274.3 213.2 274.3Z" fill="#0085BB"/><path d="M213.2 253.5 286.65 253.5 286.65 264.55 213.2 264.55Z" fill="#00AEEF"/><path d="M213.2 241.8 286.65 241.8 286.65 253.5 213.2 253.5Z" fill="#91B9DC"/><path d="M213.2 230.1 286.65 230.1 286.65 241.8 213.2 241.8Z" fill="#0075B2"/><path d="M213.2 218.4 286.65 218.4 286.65 230.1 213.2 230.1Z" fill="#139FC6"/><path d="M213.2 204.1 286.65 204.1 286.65 218.4 213.2 218.4Z" fill="#6DCFF6"/><path d="M213.2 187.2 286.65 187.2 286.65 204.1 213.2 204.1Z" fill="#007BAB"/><path d="M213.2 168.35 286.65 168.35 286.65 187.2 213.2 187.2Z" fill="#00AEEF"/><path d="M213.2 88.4 286.65 88.4 286.65 168.35 213.2 168.35Z" fill="#008542"/><text fill="#333333" font-family="Calibri,Calibri_MSFontService,sans-serif" font-weight="400" font-size="12" transform="matrix(0.65 0 0 0.65 197.696 310)">0</text><text fill="#333333" font-family="Calibri,Calibri_MSFontService,sans-serif" font-weight="400" font-size="12" transform="matrix(0.65 0 0 0.65 189.792 294)">500</text><text fill="#333333" font-family="Calibri,Calibri_MSFontService,sans-serif" font-weight="400" font-size="12" transform="matrix(0.65 0 0 0.65 183.895 278)">1</text><text fill="#333333" font-family="Calibri,Calibri_MSFontService,sans-serif" font-weight="400" font-size="12" transform="matrix(0.65 0 0 0.65 187.795 278)">,</text><text fill="#333333" font-family="Calibri,Calibri_MSFontService,sans-serif" font-weight="400" font-size="12" transform="matrix(0.65 0 0 0.65 189.745 278)">000</text><text fill="#333333" font-family="Calibri,Calibri_MSFontService,sans-serif" font-weight="400" font-size="12" transform="matrix(0.65 0 0 0.65 183.895 263)">1</text><text fill="#333333" font-family="Calibri,Calibri_MSFontService,sans-serif" font-weight="400" font-size="12" transform="matrix(0.65 0 0 0.65 187.795 263)">,</text><text fill="#333333" font-family="Calibri,Calibri_MSFontService,sans-serif" font-weight="400" font-size="12" transform="matrix(0.65 0 0 0.65 189.745 263)">500</text><text fill="#333333" font-family="Calibri,Calibri_MSFontService,sans-serif" font-weight="400" font-size="12" transform="matrix(0.65 0 0 0.65 183.895 247)">2</text><text fill="#333333" font-family="Calibri,Calibri_MSFontService,sans-serif" font-weight="400" font-size="12" transform="matrix(0.65 0 0 0.65 187.795 247)">,</text><text fill="#333333" font-family="Calibri,Calibri_MSFontService,sans-serif" font-weight="400" font-size="12" transform="matrix(0.65 0 0 0.65 189.745 247)">000</text><text fill="#333333" font-family="Calibri,Calibri_MSFontService,sans-serif" font-weight="400" font-size="12" transform="matrix(0.65 0 0 0.65 183.895 231)">2</text><text fill="#333333" font-family="Calibri,Calibri_MSFontService,sans-serif" font-weight="400" font-size="12" transform="matrix(0.65 0 0 0.65 187.795 231)">,</text><text fill="#333333" font-family="Calibri,Calibri_MSFontService,sans-serif" font-weight="400" font-size="12" transform="matrix(0.65 0 0 0.65 189.745 231)">500</text><text fill="#333333" font-family="Calibri,Calibri_MSFontService,sans-serif" font-weight="400" font-size="12" transform="matrix(0.65 0 0 0.65 183.895 215)">3</text><text fill="#333333" font-family="Calibri,Calibri_MSFontService,sans-serif" font-weight="400" font-size="12" transform="matrix(0.65 0 0 0.65 187.795 215)">,</text><text fill="#333333" font-family="Calibri,Calibri_MSFontService,sans-serif" font-weight="400" font-size="12" transform="matrix(0.65 0 0 0.65 189.745 215)">000</text><text fill="#333333" font-family="Calibri,Calibri_MSFontService,sans-serif" font-weight="400" font-size="12" transform="matrix(0.65 0 0 0.65 183.895 200)">3</text><text fill="#333333" font-family="Calibri,Calibri_MSFontService,sans-serif" font-weight="400" font-size="12" transform="matrix(0.65 0 0 0.65 187.795 200)">,</text><text fill="#333333" font-family="Calibri,Calibri_MSFontService,sans-serif" font-weight="400" font-size="12" transform="matrix(0.65 0 0 0.65 189.745 200)">500</text><text fill="#333333" font-family="Calibri,Calibri_MSFontService,sans-serif" font-weight="400" font-size="12" transform="matrix(0.65 0 0 0.65 183.895 184)">4</text><text fill="#333333" font-family="Calibri,Calibri_MSFontService,sans-serif" font-weight="400" font-size="12" transform="matrix(0.65 0 0 0.65 187.795 184)">,</text><text fill="#333333" font-family="Calibri,Calibri_MSFontService,sans-serif" font-weight="400" font-size="12" transform="matrix(0.65 0 0 0.65 189.745 184)">000</text><text fill="#333333" font-family="Calibri,Calibri_MSFontService,sans-serif" font-weight="400" font-size="12" transform="matrix(0.65 0 0 0.65 183.895 168)">4</text><text fill="#333333" font-family="Calibri,Calibri_MSFontService,sans-serif" font-weight="400" font-size="12" transform="matrix(0.65 0 0 0.65 187.795 168)">,</text><text fill="#333333" font-family="Calibri,Calibri_MSFontService,sans-serif" font-weight="400" font-size="12" transform="matrix(0.65 0 0 0.65 189.745 168)">500</text><text fill="#333333" font-family="Calibri,Calibri_MSFontService,sans-serif" font-weight="400" font-size="12" transform="matrix(0.65 0 0 0.65 183.895 152)">5</text><text fill="#333333" font-family="Calibri,Calibri_MSFontService,sans-serif" font-weight="400" font-size="12" transform="matrix(0.65 0 0 0.65 187.795 152)">,</text><text fill="#333333" font-family="Calibri,Calibri_MSFontService,sans-serif" font-weight="400" font-size="12" transform="matrix(0.65 0 0 0.65 189.745 152)">000</text><text fill="#333333" font-family="Calibri,Calibri_MSFontService,sans-serif" font-weight="400" font-size="12" transform="matrix(0.65 0 0 0.65 183.895 137)">5</text><text fill="#333333" font-family="Calibri,Calibri_MSFontService,sans-serif" font-weight="400" font-size="12" transform="matrix(0.65 0 0 0.65 187.795 137)">,</text><text fill="#333333" font-family="Calibri,Calibri_MSFontService,sans-serif" font-weight="400" font-size="12" transform="matrix(0.65 0 0 0.65 189.745 137)">500</text><text fill="#333333" font-family="Calibri,Calibri_MSFontService,sans-serif" font-weight="400" font-size="12" transform="matrix(0.65 0 0 0.65 183.895 120)">6</text><text fill="#333333" font-family="Calibri,Calibri_MSFontService,sans-serif" font-weight="400" font-size="12" transform="matrix(0.65 0 0 0.65 187.795 120)">,</text><text fill="#333333" font-family="Calibri,Calibri_MSFontService,sans-serif" font-weight="400" font-size="12" transform="matrix(0.65 0 0 0.65 189.745 120)">000</text><text fill="#333333" font-family="Calibri,Calibri_MSFontService,sans-serif" font-weight="400" font-size="12" transform="matrix(0.65 0 0 0.65 183.895 105)">6</text><text fill="#333333" font-family="Calibri,Calibri_MSFontService,sans-serif" font-weight="400" font-size="12" transform="matrix(0.65 0 0 0.65 187.795 105)">,</text><text fill="#333333" font-family="Calibri,Calibri_MSFontService,sans-serif" font-weight="400" font-size="12" transform="matrix(0.65 0 0 0.65 189.745 105)">500</text><text fill="#333333" font-family="Calibri,Calibri_MSFontService,sans-serif" font-weight="400" font-size="12" transform="matrix(0.65 0 0 0.65 183.895 89)">7</text><text fill="#333333" font-family="Calibri,Calibri_MSFontService,sans-serif" font-weight="400" font-size="12" transform="matrix(0.65 0 0 0.65 187.795 89)">,</text><text fill="#333333" font-family="Calibri,Calibri_MSFontService,sans-serif" font-weight="400" font-size="12" transform="matrix(0.65 0 0 0.65 189.745 89)">000</text><text fill="#333333" font-family="Calibri,Calibri_MSFontService,sans-serif" font-weight="400" font-size="13" transform="matrix(3.9801e-17 -0.65 0.65 3.9801e-17 175.818 265)">Annual Site Energy Consumption </text><text fill="#333333" font-family="Calibri,Calibri_MSFontService,sans-serif" font-weight="400" font-size="13" transform="matrix(3.9801e-17 -0.65 0.65 3.9801e-17 175.818 148)">(</text><text fill="#333333" font-family="Calibri,Calibri_MSFontService,sans-serif" font-weight="400" font-size="13" transform="matrix(3.9801e-17 -0.65 0.65 3.9801e-17 175.818 146)">TBtu</text><text fill="#333333" font-family="Calibri,Calibri_MSFontService,sans-serif" font-weight="400" font-size="13" transform="matrix(3.9801e-17 -0.65 0.65 3.9801e-17 175.818 130)">)</text><text font-family="Calibri,Calibri_MSFontService,sans-serif" font-weight="700" font-size="20" transform="matrix(0.65 0 0 0.65 178.351 72)">All Buildings in</text><text font-family="Calibri,Calibri_MSFontService,sans-serif" font-weight="700" font-size="20" transform="matrix(0.65 0 0 0.65 260.749 72)">CBECS</text><text font-family="Calibri,Calibri_MSFontService,sans-serif" font-weight="700" font-size="20" transform="matrix(0.65 0 0 0.65 297.032 72)">2012</text><path d="M33.15 102.7 38.35 102.7 38.35 107.9 33.15 107.9Z" fill="#008542"/><text fill="#333333" font-family="Calibri,Calibri_MSFontService,sans-serif" font-weight="400" font-size="14" transform="matrix(0.65 0 0 0.65 40.5594 108)">Other </text><text fill="#333333" font-family="Calibri,Calibri_MSFontService,sans-serif" font-weight="400" font-size="14" transform="matrix(0.65 0 0 0.65 63.9594 108)">(</text><text fill="#333333" font-family="Calibri,Calibri_MSFontService,sans-serif" font-weight="400" font-size="14" transform="matrix(0.65 0 0 0.65 66.5594 108)">not modeled in ComStock</text><text fill="#333333" font-family="Calibri,Calibri_MSFontService,sans-serif" font-weight="400" font-size="14" transform="matrix(0.65 0 0 0.65 158.859 108)">)</text><path d="M33.15 115.05 38.35 115.05 38.35 120.25 33.15 120.25Z" fill="#00AEEF"/><text fill="#333333" font-family="Calibri,Calibri_MSFontService,sans-serif" font-weight="400" font-size="14" transform="matrix(0.65 0 0 0.65 40.5594 120)">Retail strip mall</text><path d="M33.15 127.4 38.35 127.4 38.35 131.95 33.15 131.95Z" fill="#007BAB"/><text fill="#333333" font-family="Calibri,Calibri_MSFontService,sans-serif" font-weight="400" font-size="14" transform="matrix(0.65 0 0 0.65 40.5594 132)">Hospital</text><path d="M33.15 139.1 38.35 139.1 38.35 144.3 33.15 144.3Z" fill="#6DCFF6"/><text fill="#333333" font-family="Calibri,Calibri_MSFontService,sans-serif" font-weight="400" font-size="14" transform="matrix(0.65 0 0 0.65 40.5594 144)">Large office</text><path d="M33.15 151.45 38.35 151.45 38.35 156.65 33.15 156.65Z" fill="#139FC6"/><text fill="#333333" font-family="Calibri,Calibri_MSFontService,sans-serif" font-weight="400" font-size="14" transform="matrix(0.65 0 0 0.65 40.5594 156)">Full service restaurant</text><path d="M33.15 163.8 38.35 163.8 38.35 168.35 33.15 168.35Z" fill="#0075B2"/><text fill="#333333" font-family="Calibri,Calibri_MSFontService,sans-serif" font-weight="400" font-size="14" transform="matrix(0.65 0 0 0.65 40.5594 168)">Medium office</text><path d="M33.15 175.5 38.35 175.5 38.35 180.7 33.15 180.7Z" fill="#91B9DC"/><text fill="#333333" font-family="Calibri,Calibri_MSFontService,sans-serif" font-weight="400" font-size="14" transform="matrix(0.65 0 0 0.65 40.5594 181)">Warehouse</text><path d="M33.15 187.85 38.35 187.85 38.35 193.05 33.15 193.05Z" fill="#00AEEF"/><text fill="#333333" font-family="Calibri,Calibri_MSFontService,sans-serif" font-weight="400" font-size="14" transform="matrix(0.65 0 0 0.65 40.5594 192)">Primary school</text><path d="M33.15 200.2 38.35 200.2 38.35 204.75 33.15 204.75Z" fill="#0085BB"/><text fill="#333333" font-family="Calibri,Calibri_MSFontService,sans-serif" font-weight="400" font-size="14" transform="matrix(0.65 0 0 0.65 40.5594 205)">Retail standalone</text><path d="M33.15 211.9 38.35 211.9 38.35 217.1 33.15 217.1Z" fill="#00BBD6"/><text fill="#333333" font-family="Calibri,Calibri_MSFontService,sans-serif" font-weight="400" font-size="14" transform="matrix(0.65 0 0 0.65 40.5594 217)">Large hotel</text><path d="M33.15 224.25 38.35 224.25 38.35 228.8 33.15 228.8Z" fill="#3372A9"/><text fill="#333333" font-family="Calibri,Calibri_MSFontService,sans-serif" font-weight="400" font-size="14" transform="matrix(0.65 0 0 0.65 40.5594 229)">Small office</text><path d="M33.15 235.95 38.35 235.95 38.35 241.15 33.15 241.15Z" fill="#6DCFF6"/><text fill="#333333" font-family="Calibri,Calibri_MSFontService,sans-serif" font-weight="400" font-size="14" transform="matrix(0.65 0 0 0.65 40.5594 241)">Secondary school</text><path d="M33.15 248.3 38.35 248.3 38.35 253.5 33.15 253.5Z" fill="#0089BC"/><text fill="#333333" font-family="Calibri,Calibri_MSFontService,sans-serif" font-weight="400" font-size="14" transform="matrix(0.65 0 0 0.65 40.5594 254)">Outpatient</text><path d="M33.15 260.65 38.35 260.65 38.35 265.2 33.15 265.2Z" fill="#5FA2D5"/><text fill="#333333" font-family="Calibri,Calibri_MSFontService,sans-serif" font-weight="400" font-size="14" transform="matrix(0.65 0 0 0.65 40.5594 265)">Quick service restaurant</text><path d="M33.15 272.35 38.35 272.35 38.35 277.55 33.15 277.55Z" fill="#0053A5"/><text fill="#333333" font-family="Calibri,Calibri_MSFontService,sans-serif" font-weight="400" font-size="14" transform="matrix(0.65 0 0 0.65 40.5594 278)">Small hotel</text><text font-family="Calibri,Calibri_MSFontService,sans-serif" font-weight="700" font-size="15" transform="matrix(0.65 0 0 0.65 33.3293 92)">Building</text><text font-family="Calibri,Calibri_MSFontService,sans-serif" font-weight="700" font-size="15" transform="matrix(0.65 0 0 0.65 67.7794 92)">Type</text><path d="M0 0 624 0 624 38.35 0 38.35Z" fill="#0079C1"/><text fill="#FFFFFF" font-family="Calibri,Calibri_MSFontService,sans-serif" font-weight="400" font-size="40" transform="matrix(0.65 0 0 0.65 145.613 27)">Building Types Not in ComStock</text><text fill="#FFFFFF" font-family="Calibri,Calibri_MSFontService,sans-serif" font-weight="700" font-size="15" transform="matrix(0.65 0 0 0.65 242.124 137)">36</text><text fill="#FFFFFF" font-family="Calibri,Calibri_MSFontService,sans-serif" font-weight="700" font-size="15" transform="matrix(0.65 0 0 0.65 251.224 137)">%</text><text fill="#333333" font-family="Calibri,Calibri_MSFontService,sans-serif" font-weight="700" font-size="15" transform="matrix(0.65 0 0 0.65 244.562 181)">8</text><text fill="#333333" font-family="Calibri,Calibri_MSFontService,sans-serif" font-weight="700" font-size="15" transform="matrix(0.65 0 0 0.65 249.112 181)">%</text><text fill="#FFFFFF" font-family="Calibri,Calibri_MSFontService,sans-serif" font-weight="700" font-size="15" transform="matrix(0.65 0 0 0.65 244.562 199)">8</text><text fill="#FFFFFF" font-family="Calibri,Calibri_MSFontService,sans-serif" font-weight="700" font-size="15" transform="matrix(0.65 0 0 0.65 249.112 199)">%</text><text fill="#333333" font-family="Calibri,Calibri_MSFontService,sans-serif" font-weight="700" font-size="15" transform="matrix(0.65 0 0 0.65 244.562 215)">6</text><text fill="#333333" font-family="Calibri,Calibri_MSFontService,sans-serif" font-weight="700" font-size="15" transform="matrix(0.65 0 0 0.65 249.112 215)">%</text><text fill="#F2F2F2" font-family="Calibri,Calibri_MSFontService,sans-serif" font-weight="700" font-size="15" transform="matrix(0.65 0 0 0.65 244.562 228)">5</text><text fill="#F2F2F2" font-family="Calibri,Calibri_MSFontService,sans-serif" font-weight="700" font-size="15" transform="matrix(0.65 0 0 0.65 249.112 228)">%</text><text fill="#F2F2F2" font-family="Calibri,Calibri_MSFontService,sans-serif" font-weight="700" font-size="15" transform="matrix(0.65 0 0 0.65 244.562 239)">5</text><text fill="#F2F2F2" font-family="Calibri,Calibri_MSFontService,sans-serif" font-weight="700" font-size="15" transform="matrix(0.65 0 0 0.65 249.112 239)">%</text><text fill="#333333" font-family="Calibri,Calibri_MSFontService,sans-serif" font-weight="700" font-size="15" transform="matrix(0.65 0 0 0.65 244.562 252)">5</text><text fill="#333333" font-family="Calibri,Calibri_MSFontService,sans-serif" font-weight="700" font-size="15" transform="matrix(0.65 0 0 0.65 249.112 252)">%</text><text fill="#333333" font-family="Calibri,Calibri_MSFontService,sans-serif" font-weight="700" font-size="15" transform="matrix(0.65 0 0 0.65 244.562 263)">5</text><text fill="#333333" font-family="Calibri,Calibri_MSFontService,sans-serif" font-weight="700" font-size="15" transform="matrix(0.65 0 0 0.65 249.112 263)">%</text><text fill="#F2F2F2" font-family="Calibri,Calibri_MSFontService,sans-serif" font-weight="700" font-size="15" transform="matrix(0.65 0 0 0.65 244.562 273)">4</text><text fill="#F2F2F2" font-family="Calibri,Calibri_MSFontService,sans-serif" font-weight="700" font-size="15" transform="matrix(0.65 0 0 0.65 249.112 273)">%</text><text fill="#333333" font-family="Calibri,Calibri_MSFontService,sans-serif" font-weight="700" font-size="15" transform="matrix(0.65 0 0 0.65 244.562 283)">4</text><text fill="#333333" font-family="Calibri,Calibri_MSFontService,sans-serif" font-weight="700" font-size="15" transform="matrix(0.65 0 0 0.65 249.112 283)">%</text><text fill="#F2F2F2" font-family="Calibri,Calibri_MSFontService,sans-serif" font-weight="700" font-size="15" transform="matrix(0.65 0 0 0.65 421.056 106)">9</text><text fill="#F2F2F2" font-family="Calibri,Calibri_MSFontService,sans-serif" font-weight="700" font-size="15" transform="matrix(0.65 0 0 0.65 425.606 106)">%</text><text fill="#F2F2F2" font-family="Calibri,Calibri_MSFontService,sans-serif" font-weight="700" font-size="15" transform="matrix(0.65 0 0 0.65 421.056 122)">7</text><text fill="#F2F2F2" font-family="Calibri,Calibri_MSFontService,sans-serif" font-weight="700" font-size="15" transform="matrix(0.65 0 0 0.65 425.606 122)">%</text><text fill="#333333" font-family="Calibri,Calibri_MSFontService,sans-serif" font-weight="700" font-size="15" transform="matrix(0.65 0 0 0.65 421.056 137)">7</text><text fill="#333333" font-family="Calibri,Calibri_MSFontService,sans-serif" font-weight="700" font-size="15" transform="matrix(0.65 0 0 0.65 425.606 137)">%</text><text fill="#333333" font-family="Calibri,Calibri_MSFontService,sans-serif" font-weight="700" font-size="15" transform="matrix(0.65 0 0 0.65 421.134 151)">6</text><text fill="#333333" font-family="Calibri,Calibri_MSFontService,sans-serif" font-weight="700" font-size="15" transform="matrix(0.65 0 0 0.65 425.684 151)">%</text><text fill="#333333" font-family="Calibri,Calibri_MSFontService,sans-serif" font-weight="700" font-size="15" transform="matrix(0.65 0 0 0.65 421.212 166)">6</text><text fill="#333333" font-family="Calibri,Calibri_MSFontService,sans-serif" font-weight="700" font-size="15" transform="matrix(0.65 0 0 0.65 425.762 166)">%</text><text fill="#FFFFFF" font-family="Calibri,Calibri_MSFontService,sans-serif" font-weight="700" font-size="15" transform="matrix(0.65 0 0 0.65 420.822 178)">6</text><text fill="#FFFFFF" font-family="Calibri,Calibri_MSFontService,sans-serif" font-weight="700" font-size="15" transform="matrix(0.65 0 0 0.65 425.372 178)">%</text><text fill="#333333" font-family="Calibri,Calibri_MSFontService,sans-serif" font-weight="700" font-size="15" transform="matrix(0.65 0 0 0.65 420.43 191)">6</text><text fill="#333333" font-family="Calibri,Calibri_MSFontService,sans-serif" font-weight="700" font-size="15" transform="matrix(0.65 0 0 0.65 424.98 191)">%</text><text fill="#FFFFFF" font-family="Calibri,Calibri_MSFontService,sans-serif" font-weight="700" font-size="15" transform="matrix(0.65 0 0 0.65 420.978 202)">5</text><text fill="#FFFFFF" font-family="Calibri,Calibri_MSFontService,sans-serif" font-weight="700" font-size="15" transform="matrix(0.65 0 0 0.65 425.528 202)">%</text><text fill="#333333" font-family="Calibri,Calibri_MSFontService,sans-serif" font-weight="700" font-size="15" transform="matrix(0.65 0 0 0.65 421.526 212)">5</text><text fill="#333333" font-family="Calibri,Calibri_MSFontService,sans-serif" font-weight="700" font-size="15" transform="matrix(0.65 0 0 0.65 426.076 212)">%</text><text fill="#333333" font-family="Calibri,Calibri_MSFontService,sans-serif" font-weight="700" font-size="15" transform="matrix(0.65 0 0 0.65 421.604 222)">3</text><text fill="#333333" font-family="Calibri,Calibri_MSFontService,sans-serif" font-weight="700" font-size="15" transform="matrix(0.65 0 0 0.65 426.154 222)">%</text><path d="M298.025 88.725 298.025 168.21" stroke="#008542" stroke-width="1.73334" stroke-linejoin="round" stroke-miterlimit="10" fill="none" fill-rule="evenodd"/><path d="M0 0 7.66181 6.82415e-05" stroke="#008542" stroke-width="1.73334" stroke-linejoin="round" stroke-miterlimit="10" fill="none" fill-rule="evenodd" transform="matrix(-1 0 0 1 297.887 89.375)"/><path d="M0 0 7.66181 6.82415e-05" stroke="#008542" stroke-width="1.73334" stroke-linejoin="round" stroke-miterlimit="10" fill="none" fill-rule="evenodd" transform="matrix(-1 0 0 1 297.887 167.375)"/><path d="M0 0 83.5295 6.82415e-05" stroke="#008542" stroke-width="1.73334" stroke-linejoin="round" stroke-miterlimit="10" fill="none" fill-rule="evenodd" transform="matrix(-1 0 0 1 381.555 112.775)"/><path d="M381.225 91.975 381.225 308.747" stroke="#008542" stroke-width="1.73334" stroke-linejoin="round" stroke-miterlimit="10" fill="none" fill-rule="evenodd"/><path d="M381.225 92.625 387.612 92.625" stroke="#008542" stroke-width="1.73334" stroke-linejoin="round" stroke-miterlimit="10" fill="none" fill-rule="evenodd"/><path d="M381.225 307.775 387.612 307.775" stroke="#008542" stroke-width="1.73334" stroke-linejoin="round" stroke-miterlimit="10" fill="none" fill-rule="evenodd"/><path d="M558.35 323.05 618.15 323.05 618.15 341.9 558.35 341.9Z" fill="#FFFFFF"/></g></svg>