<svg width="40" height="40" xmlns="http://www.w3.org/2000/svg" xmlns:xlink="http://www.w3.org/1999/xlink" xml:space="preserve" overflow="hidden"><g transform="translate(-346 -114)"><path d="M354.333 119.833 351.833 119.833 351.833 148.167 380.167 148.167 380.167 145.667 354.333 145.667 354.333 119.833Z" fill="#0070C0"/><path d="M379.856 140.115C378.403 140.167 374.527 140.305 373.731 132.429 373.083 125.985 371.421 123.236 368.179 123.236 364.938 123.236 363.277 125.985 362.625 132.429 361.833 140.305 357.958 140.163 356.502 140.115 356.381 140.111 356.277 140.107 356.192 140.107L356.192 142.607C356.252 142.607 356.327 142.61 356.413 142.614 356.544 142.618 356.673 142.62 356.802 142.62 361.652 142.62 364.448 139.278 365.114 132.68 365.815 125.736 367.531 125.736 368.179 125.736 368.828 125.736 370.543 125.736 371.244 132.68 371.928 139.453 374.851 142.78 379.945 142.614 380.032 142.61 380.106 142.607 380.167 142.607L380.167 140.107C380.083 140.107 379.978 140.111 379.856 140.115Z" fill="#0070C0"/><path d="M367.763 131.986 368.596 131.986 368.596 134.07 367.763 134.07Z" fill="#0070C0"/><path d="M367.763 135.736 368.596 135.736 368.596 137.82 367.763 137.82Z" fill="#0070C0"/><path d="M367.763 128.375 368.596 128.375 368.596 130.459 367.763 130.459Z" fill="#0070C0"/><path d="M367.763 139.486 368.596 139.486 368.596 141.5 367.763 141.5Z" fill="#0070C0"/></g></svg>