<svg width="23" height="38" xmlns="http://www.w3.org/2000/svg" xmlns:xlink="http://www.w3.org/1999/xlink" xml:space="preserve" overflow="hidden"><defs><clipPath id="clip0"><rect x="223" y="118" width="23" height="38"/></clipPath></defs><g clip-path="url(#clip0)" transform="translate(-223 -118)"><path d="M22.2257 8.68098 12.5136 0.406308C11.8768-0.134867 10.9413-0.134867 10.3062 0.406308L0.59239 8.68098C0.216811 9.00193 0 9.4697 0 9.96478L0 36.315C0 37.2454 0.754571 38.0017 1.68669 38.0017L21.1331 38.0017C22.0635 38.0017 22.8198 37.2471 22.8198 36.315L22.8198 9.96307C22.8198 9.4697 22.603 9.00023 22.2274 8.67928ZM13.5891 17.8536 17.1725 16.0389 17.1725 16.0133 13.5891 14.1849 13.5891 12.6485 18.4187 15.339 18.4187 16.7098 13.5891 19.4003 13.5891 17.8519ZM11.409 3.89748C12.237 3.89748 12.9097 4.5684 12.9097 5.39809 12.9097 6.22777 12.2387 6.89869 11.409 6.89869 10.5794 6.89869 9.90844 6.22777 9.90844 5.39809 9.90844 4.5684 10.5794 3.89748 11.409 3.89748ZM13.0138 10.7074 11.1735 19.9125 10.0348 19.9125 11.8751 10.7074 13.0138 10.7074ZM4.39939 15.3919 9.22899 12.6502 9.22899 14.1986 5.74464 16.015 5.74464 16.0406 9.22899 17.8553 9.22899 19.4037 4.39939 16.662 4.39939 15.3919ZM21.2134 33.9506 1.60645 33.9506 1.60645 32.5131 21.2134 32.5131 21.2134 33.9506ZM21.2134 29.3446 1.60645 29.3446 1.60645 27.9072 21.2134 27.9072 21.2134 29.3446ZM21.2134 24.7387 1.60645 24.7387 1.60645 23.3012 21.2134 23.3012 21.2134 24.7387Z" fill="#0070C0" transform="matrix(1.00727 0 0 1 223.008 118)"/></g></svg>