<?xml version="1.0" encoding="UTF-8"?>
<svg id="Layer_1" data-name="Layer 1" xmlns="http://www.w3.org/2000/svg" viewBox="0 0 540 323.76">
  <defs>
    <style>
      .cls-1 {
        stroke-dasharray: 0 0 1 1;
      }

      .cls-1, .cls-2, .cls-3, .cls-4, .cls-5 {
        fill: none;
        stroke-miterlimit: 10;
      }

      .cls-1, .cls-2, .cls-4, .cls-5 {
        stroke: #6a737b;
        stroke-width: .2px;
      }

      .cls-6 {
        fill: #6a737b;
      }

      .cls-7 {
        fill: #00a4e4;
      }

      .cls-2 {
        stroke-dasharray: 0 1;
      }

      .cls-3 {
        stroke: #231f20;
        stroke-width: .75px;
      }

      .cls-5 {
        stroke-dasharray: 0 0 1 1;
      }
    </style>
  </defs>
  <g>
    <line class="cls-4" x1="502.56" y1="252" x2="502.06" y2="252"/>
    <line class="cls-1" x1="501.07" y1="252" x2="46" y2="252"/>
    <polyline class="cls-4" points="45.5 252 45 252 45 251.5"/>
    <line class="cls-5" x1="45" y1="250.5" x2="45" y2="76.17"/>
    <line class="cls-4" x1="45" y1="75.67" x2="45" y2="75.17"/>
    <polygon class="cls-6" points="502.27 251 504 252 502.27 253 502.27 251"/>
    <polygon class="cls-6" points="46 75.46 45 73.74 44 75.46 46 75.46"/>
  </g>
  <g>
    <path d="M42.6,41.1h-2.97v1.92h3.32v1.5h-5.16v-8.08h4.99v1.5h-3.15v1.68h2.97v1.49Z"/>
    <path d="M44.18,42.92c.34,.2,1.03,.44,1.57,.44s.78-.19,.78-.49-.18-.44-.86-.67c-1.21-.41-1.68-1.07-1.67-1.76,0-1.09,.94-1.92,2.39-1.92,.68,0,1.3,.16,1.66,.34l-.32,1.26c-.26-.14-.77-.34-1.27-.34-.44,0-.7,.18-.7,.48,0,.28,.23,.42,.95,.67,1.12,.38,1.58,.95,1.6,1.81,0,1.09-.86,1.9-2.54,1.9-.77,0-1.45-.17-1.89-.41l.32-1.31Z"/>
    <path d="M51.43,36.98v1.68h1.31v1.34h-1.31v2.12c0,.71,.17,1.03,.72,1.03,.23,0,.41-.02,.54-.05v1.38c-.23,.1-.66,.16-1.18,.16-.59,0-1.08-.2-1.37-.5-.34-.35-.5-.91-.5-1.74v-2.4h-.78v-1.34h.78v-1.27l1.79-.41Z"/>
    <path d="M55.68,37.02c0,.5-.38,.91-.98,.91s-.96-.41-.95-.91c-.01-.53,.37-.92,.96-.92s.96,.4,.97,.92Zm-1.88,7.5v-5.87h1.82v5.87h-1.82Z"/>
    <path d="M57.09,40.53c0-.73-.02-1.36-.05-1.87h1.54l.08,.79h.04c.25-.37,.77-.92,1.77-.92,.76,0,1.35,.38,1.61,1h.02c.22-.3,.48-.54,.76-.71,.32-.19,.68-.29,1.12-.29,1.13,0,1.98,.79,1.98,2.54v3.45h-1.77v-3.19c0-.85-.28-1.34-.86-1.34-.42,0-.72,.29-.84,.64-.05,.13-.07,.32-.07,.47v3.43h-1.78v-3.29c0-.74-.26-1.25-.84-1.25-.47,0-.74,.36-.85,.66-.06,.14-.07,.31-.07,.46v3.42h-1.78v-3.99Z"/>
    <path d="M70.74,44.52l-.11-.59h-.04c-.38,.47-.98,.72-1.68,.72-1.19,0-1.9-.86-1.9-1.8,0-1.52,1.37-2.25,3.44-2.24v-.08c0-.31-.17-.76-1.07-.76-.6,0-1.24,.2-1.62,.44l-.34-1.18c.41-.23,1.21-.52,2.28-.52,1.96,0,2.58,1.15,2.58,2.53v2.04c0,.56,.02,1.1,.08,1.43h-1.64Zm-.22-2.77c-.96-.01-1.7,.22-1.7,.92,0,.47,.31,.7,.72,.7,.46,0,.83-.3,.95-.67,.02-.1,.04-.2,.04-.31v-.64Z"/>
    <path d="M75.69,36.98v1.68h1.31v1.34h-1.31v2.12c0,.71,.17,1.03,.72,1.03,.23,0,.41-.02,.54-.05v1.38c-.23,.1-.66,.16-1.18,.16-.59,0-1.08-.2-1.37-.5-.34-.35-.5-.91-.5-1.74v-2.4h-.78v-1.34h.78v-1.27l1.79-.41Z"/>
    <path d="M79.39,42.17c.06,.75,.8,1.12,1.66,1.12,.62,0,1.13-.08,1.62-.24l.24,1.24c-.6,.24-1.33,.36-2.12,.36-1.99,0-3.13-1.15-3.13-2.99,0-1.49,.92-3.13,2.96-3.13,1.9,0,2.61,1.48,2.61,2.93,0,.31-.04,.59-.06,.72h-3.78Zm2.15-1.25c0-.44-.19-1.19-1.03-1.19-.77,0-1.08,.7-1.13,1.19h2.16Z"/>
    <path d="M88.69,42.45l-.58,2.08h-1.89l2.47-8.08h2.4l2.51,8.08h-1.97l-.62-2.08h-2.31Zm2.05-1.37l-.5-1.71c-.14-.48-.29-1.08-.41-1.56h-.02c-.12,.48-.24,1.09-.37,1.56l-.48,1.71h1.79Z"/>
    <path d="M98.86,44.38c-.32,.14-.94,.26-1.63,.26-1.9,0-3.11-1.15-3.11-3,0-1.71,1.18-3.12,3.36-3.12,.48,0,1.01,.08,1.39,.23l-.29,1.36c-.22-.1-.54-.18-1.02-.18-.96,0-1.58,.68-1.57,1.64,0,1.08,.72,1.64,1.61,1.64,.43,0,.77-.07,1.04-.18l.22,1.34Z"/>
    <path d="M104.14,44.38c-.32,.14-.94,.26-1.63,.26-1.9,0-3.11-1.15-3.11-3,0-1.71,1.18-3.12,3.36-3.12,.48,0,1.01,.08,1.39,.23l-.29,1.36c-.22-.1-.54-.18-1.02-.18-.96,0-1.58,.68-1.57,1.64,0,1.08,.72,1.64,1.61,1.64,.43,0,.77-.07,1.04-.18l.22,1.34Z"/>
    <path d="M110.68,42.64c0,.77,.02,1.39,.05,1.88h-1.58l-.08-.83h-.04c-.23,.36-.78,.96-1.83,.96-1.19,0-2.06-.74-2.06-2.55v-3.44h1.83v3.15c0,.85,.28,1.37,.91,1.37,.5,0,.79-.35,.91-.64,.05-.11,.06-.25,.06-.4v-3.49h1.83v3.98Z"/>
    <path d="M112.14,40.59c0-.86-.02-1.43-.05-1.93h1.57l.06,1.08h.05c.3-.85,1.02-1.21,1.58-1.21,.17,0,.25,0,.38,.02v1.71c-.13-.02-.29-.05-.49-.05-.67,0-1.13,.36-1.25,.92-.02,.12-.04,.26-.04,.41v2.97h-1.82v-3.93Z"/>
    <path d="M119.91,44.52l-.11-.59h-.04c-.38,.47-.98,.72-1.68,.72-1.19,0-1.9-.86-1.9-1.8,0-1.52,1.37-2.25,3.44-2.24v-.08c0-.31-.17-.76-1.07-.76-.6,0-1.24,.2-1.62,.44l-.34-1.18c.41-.23,1.21-.52,2.28-.52,1.96,0,2.58,1.15,2.58,2.53v2.04c0,.56,.02,1.1,.08,1.43h-1.64Zm-.22-2.77c-.96-.01-1.7,.22-1.7,.92,0,.47,.31,.7,.72,.7,.46,0,.83-.3,.95-.67,.02-.1,.04-.2,.04-.31v-.64Z"/>
    <path d="M127.31,44.38c-.32,.14-.94,.26-1.63,.26-1.9,0-3.11-1.15-3.11-3,0-1.71,1.18-3.12,3.36-3.12,.48,0,1.01,.08,1.39,.23l-.29,1.36c-.22-.1-.54-.18-1.02-.18-.96,0-1.58,.68-1.57,1.64,0,1.08,.72,1.64,1.61,1.64,.43,0,.77-.07,1.04-.18l.22,1.34Z"/>
    <path d="M129.87,38.66l.88,2.88c.1,.35,.22,.78,.29,1.09h.04c.08-.31,.18-.75,.26-1.09l.72-2.88h1.95l-1.37,3.86c-.84,2.33-1.4,3.26-2.06,3.85-.64,.55-1.31,.74-1.76,.8l-.38-1.55c.23-.04,.52-.14,.79-.31,.28-.14,.58-.43,.76-.73,.06-.08,.1-.18,.1-.26,0-.06-.01-.16-.08-.3l-2.15-5.36h2.03Z"/>
    <path d="M137.4,44.52v-4.52h-.77v-1.34h.77v-.23c0-.71,.22-1.49,.74-1.97,.46-.43,1.09-.59,1.62-.59,.41,0,.72,.05,.97,.12l-.07,1.4c-.16-.05-.35-.08-.59-.08-.6,0-.85,.47-.85,1.04v.3h1.18v1.34h-1.16v4.52h-1.83Z"/>
    <path d="M146.96,41.52c0,2.15-1.52,3.13-3.09,3.13-1.72,0-3.03-1.13-3.03-3.02s1.25-3.11,3.13-3.11,3,1.24,3,3Zm-4.25,.06c0,1.01,.42,1.76,1.2,1.76,.71,0,1.16-.71,1.16-1.76,0-.88-.34-1.76-1.16-1.76-.88,0-1.2,.9-1.2,1.76Z"/>
    <path d="M148.09,40.59c0-.86-.02-1.43-.05-1.93h1.57l.06,1.08h.05c.3-.85,1.02-1.21,1.58-1.21,.17,0,.25,0,.38,.02v1.71c-.13-.02-.29-.05-.49-.05-.67,0-1.13,.36-1.25,.92-.02,.12-.04,.26-.04,.41v2.97h-1.82v-3.93Z"/>
    <path d="M152.47,39.69c0-.65,.44-1.1,1.08-1.1s1.06,.44,1.07,1.1c0,.62-.43,1.09-1.08,1.09s-1.07-.47-1.07-1.09Zm0,3.87c0-.64,.44-1.1,1.08-1.1s1.06,.46,1.07,1.1c0,.62-.43,1.09-1.08,1.09s-1.07-.47-1.07-1.09Z"/>
    <path d="M158.21,36.54c.48-.1,1.45-.17,2.36-.17,1.12,0,1.8,.11,2.39,.46,.56,.3,.97,.85,.97,1.58s-.42,1.39-1.33,1.73v.02c.92,.25,1.61,.95,1.61,1.99,0,.73-.34,1.31-.84,1.72-.59,.47-1.57,.73-3.18,.73-.9,0-1.57-.06-1.98-.12v-7.94Zm1.81,3.09h.6c.96,0,1.48-.4,1.48-1s-.47-.94-1.29-.94c-.4,0-.62,.02-.78,.05v1.88Zm0,3.59c.18,.02,.4,.02,.71,.02,.83,0,1.56-.31,1.56-1.16s-.73-1.14-1.64-1.14h-.62v2.28Z"/>
    <path d="M170.93,42.64c0,.77,.02,1.39,.05,1.88h-1.58l-.08-.83h-.04c-.23,.36-.78,.96-1.83,.96-1.19,0-2.06-.74-2.06-2.55v-3.44h1.83v3.15c0,.85,.28,1.37,.91,1.37,.5,0,.79-.35,.91-.64,.05-.11,.06-.25,.06-.4v-3.49h1.83v3.98Z"/>
    <path d="M174.28,37.02c0,.5-.38,.91-.98,.91s-.96-.41-.95-.91c-.01-.53,.37-.92,.96-.92s.96,.4,.97,.92Zm-1.88,7.5v-5.87h1.82v5.87h-1.82Z"/>
    <path d="M175.68,36h1.82v8.52h-1.82v-8.52Z"/>
    <path d="M184.67,36v6.76c0,.66,.02,1.35,.05,1.75h-1.62l-.08-.86h-.02c-.37,.66-1.08,1-1.83,1-1.39,0-2.51-1.19-2.51-3.01-.01-1.98,1.22-3.12,2.63-3.12,.72,0,1.28,.25,1.55,.66h.02v-3.18h1.82Zm-1.82,5.13c0-.1-.01-.23-.02-.32-.11-.49-.5-.9-1.07-.9-.83,0-1.26,.74-1.26,1.67,0,1,.49,1.62,1.25,1.62,.53,0,.95-.36,1.06-.88,.04-.13,.05-.26,.05-.42v-.77Z"/>
    <path d="M188.02,37.02c0,.5-.38,.91-.98,.91s-.96-.41-.95-.91c-.01-.53,.37-.92,.96-.92s.96,.4,.97,.92Zm-1.88,7.5v-5.87h1.82v5.87h-1.82Z"/>
    <path d="M189.42,40.53c0-.73-.02-1.36-.05-1.87h1.58l.08,.8h.04c.24-.37,.84-.94,1.81-.94,1.2,0,2.1,.79,2.1,2.52v3.48h-1.82v-3.25c0-.76-.26-1.27-.92-1.27-.5,0-.8,.35-.92,.68-.05,.11-.07,.29-.07,.46v3.38h-1.82v-3.99Z"/>
    <path d="M202.05,38.66c-.02,.37-.05,.86-.05,1.74v3.27c0,1.13-.23,2.05-.89,2.64-.65,.55-1.52,.72-2.39,.72-.77,0-1.58-.16-2.11-.46l.36-1.38c.37,.22,1.02,.44,1.7,.44,.86,0,1.52-.47,1.52-1.55v-.38h-.02c-.35,.49-.91,.77-1.58,.77-1.45,0-2.48-1.18-2.48-2.87,0-1.88,1.22-3.08,2.66-3.08,.8,0,1.31,.35,1.61,.83h.02l.06-.7h1.58Zm-1.87,2.39c0-.12-.01-.24-.04-.34-.13-.48-.48-.8-.98-.8-.66,0-1.2,.6-1.2,1.67,0,.88,.43,1.56,1.2,1.56,.47,0,.84-.31,.96-.74,.05-.13,.06-.32,.06-.48v-.86Z"/>
    <path d="M207.05,37.97h-2.17v-1.54h6.21v1.54h-2.21v6.55h-1.83v-6.55Z"/>
    <path d="M212.75,38.66l.88,2.88c.1,.35,.22,.78,.29,1.09h.04c.08-.31,.18-.75,.26-1.09l.72-2.88h1.96l-1.37,3.86c-.84,2.33-1.4,3.26-2.06,3.85-.64,.55-1.31,.74-1.76,.8l-.38-1.55c.23-.04,.52-.14,.79-.31,.28-.14,.58-.43,.76-.73,.06-.08,.1-.18,.1-.26,0-.06-.01-.16-.08-.3l-2.15-5.36h2.03Z"/>
    <path d="M217.66,40.62c0-.77-.02-1.43-.05-1.97h1.58l.08,.82h.02c.43-.62,1.1-.95,1.96-.95,1.28,0,2.43,1.12,2.43,2.99,0,2.13-1.36,3.14-2.66,3.14-.71,0-1.26-.29-1.52-.67h-.02v2.91h-1.82v-6.27Zm1.82,1.38c0,.14,.01,.28,.04,.38,.12,.49,.54,.86,1.07,.86,.79,0,1.26-.66,1.26-1.66,0-.94-.42-1.64-1.24-1.64-.52,0-.97,.38-1.09,.92-.02,.1-.04,.22-.04,.32v.8Z"/>
    <path d="M226.27,42.17c.06,.75,.8,1.12,1.66,1.12,.62,0,1.13-.08,1.62-.24l.24,1.24c-.6,.24-1.33,.36-2.12,.36-1.99,0-3.13-1.15-3.13-2.99,0-1.49,.92-3.13,2.96-3.13,1.89,0,2.61,1.48,2.61,2.93,0,.31-.04,.59-.06,.72h-3.78Zm2.15-1.25c0-.44-.19-1.19-1.03-1.19-.77,0-1.08,.7-1.13,1.19h2.16Z"/>
    <path d="M230.31,45.95c.37-1.07,.7-2.31,.86-3.41l1.86-.12c-.4,1.22-.94,2.48-1.51,3.42l-1.21,.11Z"/>
    <path d="M236.62,36.44h4.94v1.5h-3.11v1.85h2.9v1.49h-2.9v3.25h-1.83v-8.08Z"/>
    <path d="M242.7,36h1.82v8.52h-1.82v-8.52Z"/>
    <path d="M251.79,41.52c0,2.15-1.52,3.13-3.09,3.13-1.71,0-3.03-1.13-3.03-3.02s1.25-3.11,3.13-3.11,3,1.24,3,3Zm-4.25,.06c0,1.01,.42,1.76,1.2,1.76,.71,0,1.16-.71,1.16-1.76,0-.88-.34-1.76-1.16-1.76-.88,0-1.2,.9-1.2,1.76Z"/>
    <path d="M258.75,41.52c0,2.15-1.52,3.13-3.09,3.13-1.71,0-3.03-1.13-3.03-3.02s1.25-3.11,3.13-3.11,3,1.24,3,3Zm-4.25,.06c0,1.01,.42,1.76,1.2,1.76,.71,0,1.16-.71,1.16-1.76,0-.88-.34-1.76-1.16-1.76-.88,0-1.2,.9-1.2,1.76Z"/>
    <path d="M259.89,40.59c0-.86-.02-1.43-.05-1.93h1.57l.06,1.08h.05c.3-.85,1.02-1.21,1.58-1.21,.17,0,.25,0,.38,.02v1.71c-.13-.02-.29-.05-.49-.05-.67,0-1.13,.36-1.25,.92-.02,.12-.04,.26-.04,.41v2.97h-1.82v-3.93Z"/>
    <path d="M268.81,42.45l-.58,2.08h-1.89l2.47-8.08h2.4l2.51,8.08h-1.97l-.62-2.08h-2.31Zm2.05-1.37l-.5-1.71c-.14-.48-.29-1.08-.41-1.56h-.02c-.12,.48-.24,1.09-.37,1.56l-.48,1.71h1.79Z"/>
    <path d="M274.67,40.59c0-.86-.02-1.43-.05-1.93h1.57l.06,1.08h.05c.3-.85,1.02-1.21,1.58-1.21,.17,0,.25,0,.38,.02v1.71c-.13-.02-.29-.05-.49-.05-.67,0-1.13,.36-1.25,.92-.02,.12-.04,.26-.04,.41v2.97h-1.82v-3.93Z"/>
    <path d="M280.54,42.17c.06,.75,.8,1.12,1.66,1.12,.62,0,1.13-.08,1.62-.24l.24,1.24c-.6,.24-1.33,.36-2.12,.36-1.99,0-3.13-1.15-3.13-2.99,0-1.49,.92-3.13,2.96-3.13,1.89,0,2.61,1.48,2.61,2.93,0,.31-.04,.59-.06,.72h-3.78Zm2.15-1.25c0-.44-.19-1.19-1.03-1.19-.77,0-1.08,.7-1.13,1.19h2.16Z"/>
    <path d="M288.8,44.52l-.11-.59h-.04c-.38,.47-.98,.72-1.68,.72-1.19,0-1.9-.86-1.9-1.8,0-1.52,1.37-2.25,3.44-2.24v-.08c0-.31-.17-.76-1.07-.76-.6,0-1.24,.2-1.62,.44l-.34-1.18c.41-.23,1.21-.52,2.28-.52,1.96,0,2.58,1.15,2.58,2.53v2.04c0,.56,.02,1.1,.08,1.43h-1.64Zm-.22-2.77c-.96-.01-1.7,.22-1.7,.92,0,.47,.31,.7,.72,.7,.46,0,.83-.3,.95-.67,.02-.1,.04-.2,.04-.31v-.64Z"/>
    <path d="M291.1,45.95c.37-1.07,.7-2.31,.86-3.41l1.86-.12c-.4,1.22-.94,2.48-1.51,3.42l-1.21,.11Z"/>
    <path d="M298.87,44.52l-2.59-8.08h2l.98,3.42c.28,.96,.53,1.88,.72,2.89h.04c.2-.97,.46-1.93,.73-2.85l1.03-3.45h1.94l-2.72,8.08h-2.13Z"/>
    <path d="M306.1,37.02c0,.5-.38,.91-.98,.91s-.96-.41-.95-.91c-.01-.53,.37-.92,.96-.92s.96,.4,.97,.92Zm-1.88,7.5v-5.87h1.82v5.87h-1.82Z"/>
    <path d="M307.5,40.53c0-.73-.02-1.36-.05-1.87h1.58l.08,.8h.04c.24-.37,.84-.94,1.81-.94,1.2,0,2.1,.79,2.1,2.52v3.48h-1.82v-3.25c0-.76-.26-1.27-.92-1.27-.5,0-.8,.35-.92,.68-.05,.11-.07,.29-.07,.46v3.38h-1.82v-3.99Z"/>
    <path d="M316.5,36.98v1.68h1.31v1.34h-1.31v2.12c0,.71,.17,1.03,.72,1.03,.23,0,.41-.02,.54-.05v1.38c-.23,.1-.66,.16-1.18,.16-.59,0-1.08-.2-1.37-.5-.34-.35-.5-.91-.5-1.74v-2.4h-.78v-1.34h.78v-1.27l1.79-.41Z"/>
    <path d="M322.2,44.52l-.11-.59h-.04c-.38,.47-.98,.72-1.68,.72-1.19,0-1.9-.86-1.9-1.8,0-1.52,1.37-2.25,3.44-2.24v-.08c0-.31-.17-.76-1.07-.76-.6,0-1.24,.2-1.62,.44l-.34-1.18c.41-.23,1.21-.52,2.28-.52,1.96,0,2.58,1.15,2.58,2.53v2.04c0,.56,.02,1.1,.08,1.43h-1.64Zm-.22-2.77c-.96-.01-1.7,.22-1.7,.92,0,.47,.31,.7,.72,.7,.46,0,.83-.3,.95-.67,.02-.1,.04-.2,.04-.31v-.64Z"/>
    <path d="M330.8,38.66c-.02,.37-.05,.86-.05,1.74v3.27c0,1.13-.23,2.05-.89,2.64-.65,.55-1.52,.72-2.39,.72-.77,0-1.58-.16-2.11-.46l.36-1.38c.37,.22,1.02,.44,1.7,.44,.86,0,1.52-.47,1.52-1.55v-.38h-.02c-.35,.49-.91,.77-1.58,.77-1.45,0-2.48-1.18-2.48-2.87,0-1.88,1.22-3.08,2.66-3.08,.8,0,1.31,.35,1.61,.83h.02l.06-.7h1.58Zm-1.87,2.39c0-.12-.01-.24-.04-.34-.13-.48-.48-.8-.98-.8-.66,0-1.2,.6-1.2,1.67,0,.88,.43,1.56,1.2,1.56,.47,0,.84-.31,.96-.74,.05-.13,.06-.32,.06-.48v-.86Z"/>
    <path d="M333.62,42.17c.06,.75,.8,1.12,1.66,1.12,.62,0,1.13-.08,1.62-.24l.24,1.24c-.6,.24-1.33,.36-2.12,.36-1.99,0-3.13-1.15-3.13-2.99,0-1.49,.92-3.13,2.96-3.13,1.89,0,2.61,1.48,2.61,2.93,0,.31-.04,.59-.06,.72h-3.78Zm2.15-1.25c0-.44-.19-1.19-1.03-1.19-.77,0-1.08,.7-1.13,1.19h2.16Z"/>
    <path d="M337.66,45.95c.37-1.07,.7-2.31,.86-3.41l1.86-.12c-.4,1.22-.94,2.48-1.51,3.42l-1.21,.11Z"/>
    <path d="M347.24,44.52l-.11-.59h-.04c-.38,.47-.98,.72-1.68,.72-1.19,0-1.9-.86-1.9-1.8,0-1.52,1.37-2.25,3.44-2.24v-.08c0-.31-.17-.76-1.07-.76-.6,0-1.24,.2-1.62,.44l-.34-1.18c.41-.23,1.21-.52,2.28-.52,1.96,0,2.58,1.15,2.58,2.53v2.04c0,.56,.02,1.1,.08,1.43h-1.64Zm-.22-2.77c-.96-.01-1.7,.22-1.7,.92,0,.47,.31,.7,.72,.7,.46,0,.83-.3,.95-.67,.02-.1,.04-.2,.04-.31v-.64Z"/>
    <path d="M350.25,40.53c0-.73-.02-1.36-.05-1.87h1.58l.08,.8h.04c.24-.37,.84-.94,1.81-.94,1.2,0,2.1,.79,2.1,2.52v3.48h-1.82v-3.25c0-.76-.26-1.27-.92-1.27-.5,0-.8,.35-.92,.68-.05,.11-.07,.29-.07,.46v3.38h-1.82v-3.99Z"/>
    <path d="M362.96,36v6.76c0,.66,.02,1.35,.05,1.75h-1.62l-.08-.86h-.02c-.37,.66-1.08,1-1.83,1-1.39,0-2.51-1.19-2.51-3.01-.01-1.98,1.22-3.12,2.63-3.12,.72,0,1.28,.25,1.55,.66h.02v-3.18h1.82Zm-1.82,5.13c0-.1-.01-.23-.02-.32-.11-.49-.5-.9-1.07-.9-.83,0-1.26,.74-1.26,1.67,0,1,.49,1.62,1.25,1.62,.53,0,.95-.36,1.06-.88,.04-.13,.05-.26,.05-.42v-.77Z"/>
    <path d="M366.91,44.52v-8.08h2.13l1.68,2.96c.48,.85,.96,1.86,1.32,2.77h.04c-.12-1.07-.16-2.16-.16-3.37v-2.36h1.68v8.08h-1.92l-1.73-3.12c-.48-.86-1.01-1.91-1.4-2.85h-.04c.05,1.08,.07,2.22,.07,3.54v2.43h-1.68Z"/>
    <path d="M380.66,42.64c0,.77,.02,1.39,.05,1.88h-1.58l-.08-.83h-.04c-.23,.36-.78,.96-1.83,.96-1.19,0-2.06-.74-2.06-2.55v-3.44h1.83v3.15c0,.85,.28,1.37,.91,1.37,.5,0,.79-.35,.91-.64,.05-.11,.06-.25,.06-.4v-3.49h1.83v3.98Z"/>
    <path d="M382.13,40.53c0-.73-.02-1.36-.05-1.87h1.54l.08,.79h.04c.25-.37,.77-.92,1.77-.92,.76,0,1.36,.38,1.61,1h.02c.22-.3,.48-.54,.75-.71,.32-.19,.68-.29,1.12-.29,1.13,0,1.98,.79,1.98,2.54v3.45h-1.78v-3.19c0-.85-.28-1.34-.86-1.34-.42,0-.72,.29-.84,.64-.05,.13-.07,.32-.07,.47v3.43h-1.78v-3.29c0-.74-.26-1.25-.84-1.25-.47,0-.74,.36-.85,.66-.06,.14-.07,.31-.07,.46v3.42h-1.78v-3.99Z"/>
    <path d="M392.4,44.52c.02-.38,.05-1.09,.05-1.75v-6.76h1.82v3.35h.02c.35-.5,.96-.83,1.78-.83,1.4,0,2.43,1.16,2.42,2.96,0,2.11-1.34,3.17-2.69,3.17-.68,0-1.34-.25-1.76-.95h-.02l-.07,.82h-1.55Zm1.87-2.5c0,.12,.01,.23,.04,.32,.12,.49,.54,.86,1.07,.86,.78,0,1.26-.6,1.26-1.66,0-.91-.41-1.63-1.26-1.63-.49,0-.95,.37-1.07,.9-.02,.11-.04,.22-.04,.34v.86Z"/>
    <path d="M401.06,42.17c.06,.75,.8,1.12,1.66,1.12,.62,0,1.13-.08,1.62-.24l.24,1.24c-.6,.24-1.33,.36-2.12,.36-1.99,0-3.13-1.15-3.13-2.99,0-1.49,.92-3.13,2.96-3.13,1.89,0,2.61,1.48,2.61,2.93,0,.31-.04,.59-.06,.72h-3.78Zm2.15-1.25c0-.44-.19-1.19-1.03-1.19-.77,0-1.08,.7-1.13,1.19h2.16Z"/>
    <path d="M406,40.59c0-.86-.02-1.43-.05-1.93h1.57l.06,1.08h.05c.3-.85,1.02-1.21,1.58-1.21,.17,0,.25,0,.38,.02v1.71c-.13-.02-.29-.05-.49-.05-.67,0-1.13,.36-1.25,.92-.02,.12-.04,.26-.04,.41v2.97h-1.82v-3.93Z"/>
    <path d="M418.77,41.52c0,2.15-1.52,3.13-3.09,3.13-1.71,0-3.03-1.13-3.03-3.02s1.25-3.11,3.13-3.11,3,1.24,3,3Zm-4.25,.06c0,1.01,.42,1.76,1.2,1.76,.71,0,1.16-.71,1.16-1.76,0-.88-.34-1.76-1.16-1.76-.88,0-1.2,.9-1.2,1.76Z"/>
    <path d="M420.11,44.52v-4.52h-.77v-1.34h.77v-.23c0-.71,.22-1.49,.74-1.97,.46-.43,1.09-.59,1.62-.59,.41,0,.72,.05,.97,.12l-.07,1.4c-.16-.05-.35-.08-.59-.08-.6,0-.85,.47-.85,1.04v.3h1.17v1.34h-1.16v4.52h-1.83Z"/>
    <path d="M426.48,36.44h4.94v1.5h-3.11v1.85h2.9v1.49h-2.9v3.25h-1.83v-8.08Z"/>
    <path d="M432.56,36h1.82v8.52h-1.82v-8.52Z"/>
    <path d="M441.66,41.52c0,2.15-1.52,3.13-3.09,3.13-1.71,0-3.03-1.13-3.03-3.02s1.25-3.11,3.13-3.11,3,1.24,3,3Zm-4.25,.06c0,1.01,.42,1.76,1.2,1.76,.71,0,1.16-.71,1.16-1.76,0-.88-.34-1.76-1.16-1.76-.88,0-1.2,.9-1.2,1.76Z"/>
    <path d="M448.62,41.52c0,2.15-1.52,3.13-3.09,3.13-1.71,0-3.03-1.13-3.03-3.02s1.25-3.11,3.13-3.11,3,1.24,3,3Zm-4.25,.06c0,1.01,.42,1.76,1.2,1.76,.71,0,1.16-.71,1.16-1.76,0-.88-.34-1.76-1.16-1.76-.88,0-1.2,.9-1.2,1.76Z"/>
    <path d="M449.75,40.59c0-.86-.02-1.43-.05-1.93h1.57l.06,1.08h.05c.3-.85,1.02-1.21,1.58-1.21,.17,0,.25,0,.38,.02v1.71c-.13-.02-.29-.05-.49-.05-.67,0-1.13,.36-1.25,.92-.02,.12-.04,.26-.04,.41v2.97h-1.82v-3.93Z"/>
    <path d="M454.29,42.92c.34,.2,1.03,.44,1.57,.44s.78-.19,.78-.49-.18-.44-.86-.67c-1.21-.41-1.68-1.07-1.67-1.76,0-1.09,.94-1.92,2.39-1.92,.68,0,1.29,.16,1.65,.34l-.32,1.26c-.26-.14-.77-.34-1.27-.34-.44,0-.7,.18-.7,.48,0,.28,.23,.42,.95,.67,1.12,.38,1.58,.95,1.59,1.81,0,1.09-.86,1.9-2.54,1.9-.77,0-1.45-.17-1.9-.41l.32-1.31Z"/>
    <path d="M37.91,50.96c.64-.11,1.39-.18,2.22-.18,1.5,0,2.57,.36,3.27,1.01,.73,.66,1.15,1.59,1.15,2.9s-.42,2.4-1.16,3.14c-.77,.75-2.02,1.16-3.59,1.16-.76,0-1.37-.04-1.9-.1v-7.94Zm1.04,7.15c.26,.04,.65,.05,1.06,.05,2.24,0,3.44-1.25,3.44-3.43,.01-1.91-1.07-3.12-3.27-3.12-.54,0-.95,.05-1.22,.11v6.39Z"/>
    <path d="M49.94,57.53c0,.5,.02,1,.08,1.39h-.95l-.08-.73h-.04c-.32,.46-.95,.86-1.77,.86-1.18,0-1.77-.83-1.77-1.67,0-1.4,1.25-2.17,3.49-2.16v-.12c0-.47-.13-1.34-1.32-1.33-.55,0-1.12,.16-1.52,.43l-.24-.71c.48-.3,1.19-.5,1.92-.5,1.77,0,2.21,1.21,2.21,2.36v2.17Zm-1.02-1.57c-1.15-.02-2.46,.18-2.46,1.31,0,.7,.46,1.01,.98,1.01,.77,0,1.26-.48,1.43-.97,.04-.12,.05-.24,.05-.34v-1.01Z"/>
    <path d="M52.87,51.72v1.39h1.51v.8h-1.51v3.13c0,.72,.2,1.13,.79,1.13,.29,0,.46-.02,.61-.07l.05,.8c-.2,.07-.53,.14-.94,.14-.49,0-.89-.17-1.14-.44-.29-.32-.41-.84-.41-1.52v-3.17h-.9v-.8h.9v-1.08l1.03-.31Z"/>
    <path d="M59.65,57.53c0,.5,.02,1,.08,1.39h-.95l-.08-.73h-.04c-.32,.46-.95,.86-1.77,.86-1.18,0-1.77-.83-1.77-1.67,0-1.4,1.25-2.17,3.49-2.16v-.12c0-.47-.13-1.34-1.32-1.33-.55,0-1.12,.16-1.52,.43l-.24-.71c.48-.3,1.19-.5,1.92-.5,1.77,0,2.21,1.21,2.21,2.36v2.17Zm-1.02-1.57c-1.15-.02-2.46,.18-2.46,1.31,0,.7,.46,1.01,.98,1.01,.77,0,1.26-.48,1.43-.97,.04-.12,.05-.24,.05-.34v-1.01Z"/>
    <path d="M61.21,57.85c.32,.19,.88,.41,1.4,.41,.76,0,1.12-.37,1.12-.86s-.3-.77-1.07-1.06c-1.06-.38-1.55-.95-1.55-1.64,0-.94,.77-1.7,2-1.7,.59,0,1.1,.16,1.42,.36l-.25,.77c-.23-.14-.65-.35-1.19-.35-.62,0-.96,.36-.96,.79,0,.48,.34,.7,1.09,1,1,.37,1.52,.88,1.52,1.74,0,1.03-.8,1.75-2.16,1.75-.64,0-1.22-.17-1.63-.41l.25-.79Z"/>
    <path d="M66.7,56.21c.02,1.43,.92,2.01,1.99,2.01,.76,0,1.22-.13,1.61-.3l.19,.76c-.37,.17-1.02,.37-1.94,.37-1.79,0-2.85-1.19-2.85-2.94s1.03-3.12,2.72-3.12c1.91,0,2.4,1.66,2.4,2.72,0,.22-.01,.37-.04,.49h-4.08Zm3.09-.76c.01-.66-.28-1.7-1.46-1.7-1.08,0-1.54,.97-1.62,1.7h3.08Z"/>
    <path d="M73.39,51.72v1.39h1.51v.8h-1.51v3.13c0,.72,.2,1.13,.79,1.13,.29,0,.46-.02,.61-.07l.05,.8c-.2,.07-.53,.14-.94,.14-.49,0-.89-.17-1.14-.44-.29-.32-.41-.84-.41-1.52v-3.17h-.9v-.8h.9v-1.08l1.03-.31Z"/>
    <path d="M78.64,54.93c0-.68-.01-1.27-.05-1.81h.92l.05,1.15h.04c.26-.78,.91-1.27,1.62-1.27,.11,0,.19,.01,.29,.02v1c-.11-.02-.22-.02-.36-.02-.74,0-1.27,.55-1.42,1.34-.02,.14-.04,.32-.04,.49v3.09h-1.06v-3.99Z"/>
    <path d="M83.03,56.21c.02,1.43,.92,2.01,1.99,2.01,.76,0,1.22-.13,1.61-.3l.19,.76c-.37,.17-1.02,.37-1.94,.37-1.79,0-2.85-1.19-2.85-2.94s1.03-3.12,2.72-3.12c1.91,0,2.4,1.66,2.4,2.72,0,.22-.01,.37-.04,.49h-4.08Zm3.09-.76c.01-.66-.28-1.7-1.46-1.7-1.08,0-1.54,.97-1.62,1.7h3.08Z"/>
    <path d="M88.31,57.85c.32,.19,.88,.41,1.4,.41,.76,0,1.12-.37,1.12-.86s-.3-.77-1.07-1.06c-1.06-.38-1.55-.95-1.55-1.64,0-.94,.77-1.7,2-1.7,.59,0,1.1,.16,1.42,.36l-.25,.77c-.23-.14-.65-.35-1.19-.35-.62,0-.96,.36-.96,.79,0,.48,.34,.7,1.09,1,1,.37,1.52,.88,1.52,1.74,0,1.03-.8,1.75-2.16,1.75-.64,0-1.22-.17-1.63-.41l.25-.79Z"/>
    <path d="M98.46,55.97c0,2.15-1.5,3.08-2.89,3.08-1.56,0-2.78-1.15-2.78-2.99,0-1.93,1.28-3.07,2.88-3.07s2.79,1.21,2.79,2.97Zm-4.59,.06c0,1.27,.72,2.23,1.75,2.23s1.76-.95,1.76-2.25c0-.98-.49-2.22-1.74-2.22s-1.77,1.15-1.77,2.24Z"/>
    <path d="M99.79,50.41h1.06v8.51h-1.06v-8.51Z"/>
    <path d="M107.48,57.33c0,.61,.01,1.14,.05,1.59h-.94l-.06-.95h-.02c-.26,.47-.89,1.08-1.92,1.08-.91,0-2-.52-2-2.54v-3.39h1.06v3.2c0,1.1,.35,1.86,1.3,1.86,.71,0,1.2-.49,1.39-.97,.06-.14,.1-.34,.1-.54v-3.55h1.06v4.21Z"/>
    <path d="M110.51,51.72v1.39h1.51v.8h-1.51v3.13c0,.72,.2,1.13,.79,1.13,.29,0,.46-.02,.61-.07l.05,.8c-.2,.07-.53,.14-.94,.14-.49,0-.89-.17-1.14-.44-.29-.32-.41-.84-.41-1.52v-3.17h-.9v-.8h.9v-1.08l1.03-.31Z"/>
    <path d="M114.38,51.48c0,.36-.25,.65-.67,.65-.38,0-.64-.29-.64-.65s.26-.66,.66-.66,.65,.29,.65,.66Zm-1.18,7.44v-5.8h1.06v5.8h-1.06Z"/>
    <path d="M121.27,55.97c0,2.15-1.5,3.08-2.89,3.08-1.56,0-2.78-1.15-2.78-2.99,0-1.93,1.28-3.07,2.88-3.07s2.79,1.21,2.79,2.97Zm-4.59,.06c0,1.27,.72,2.23,1.75,2.23s1.76-.95,1.76-2.25c0-.98-.49-2.22-1.74-2.22s-1.77,1.15-1.77,2.24Z"/>
    <path d="M122.61,54.69c0-.61-.01-1.09-.05-1.57h.94l.06,.96h.02c.29-.54,.96-1.08,1.92-1.08,.8,0,2.05,.48,2.05,2.47v3.45h-1.06v-3.35c0-.94-.35-1.71-1.34-1.71-.68,0-1.22,.49-1.42,1.08-.05,.13-.07,.31-.07,.49v3.49h-1.06v-4.23Z"/>
    <path d="M135.77,58.03h-.02c-.32,.56-.96,1.02-1.9,1.02-1.36,0-2.46-1.16-2.46-2.93,0-2.18,1.4-3.13,2.63-3.13,.9,0,1.5,.44,1.79,1h.02l.04-.88h1c-.02,.48-.05,1-.05,1.6v6.58h-1.04v-3.26Zm0-2.57c0-.14-.01-.3-.05-.43-.17-.65-.72-1.2-1.51-1.2-1.09,0-1.75,.92-1.75,2.22,0,1.16,.55,2.16,1.72,2.16,.68,0,1.27-.42,1.51-1.14,.05-.16,.08-.36,.08-.52v-1.09Z"/>
    <path d="M143.42,57.33c0,.61,.01,1.14,.05,1.59h-.94l-.06-.95h-.02c-.26,.47-.89,1.08-1.92,1.08-.91,0-2-.52-2-2.54v-3.39h1.06v3.2c0,1.1,.35,1.86,1.3,1.86,.71,0,1.2-.49,1.39-.97,.06-.14,.1-.34,.1-.54v-3.55h1.06v4.21Z"/>
    <path d="M149.25,57.53c0,.5,.02,1,.08,1.39h-.95l-.08-.73h-.04c-.32,.46-.95,.86-1.77,.86-1.18,0-1.77-.83-1.77-1.67,0-1.4,1.25-2.17,3.49-2.16v-.12c0-.47-.13-1.34-1.32-1.33-.55,0-1.12,.16-1.52,.43l-.24-.71c.48-.3,1.19-.5,1.92-.5,1.77,0,2.21,1.21,2.21,2.36v2.17Zm-1.02-1.57c-1.15-.02-2.46,.18-2.46,1.31,0,.7,.46,1.01,.98,1.01,.77,0,1.26-.48,1.43-.97,.04-.12,.05-.24,.05-.34v-1.01Z"/>
    <path d="M150.96,50.41h1.06v8.51h-1.06v-8.51Z"/>
    <path d="M154.97,51.48c0,.36-.25,.65-.67,.65-.38,0-.64-.29-.64-.65s.26-.66,.66-.66,.65,.29,.65,.66Zm-1.18,7.44v-5.8h1.06v5.8h-1.06Z"/>
    <path d="M157.87,51.72v1.39h1.51v.8h-1.51v3.13c0,.72,.2,1.13,.79,1.13,.29,0,.46-.02,.61-.07l.05,.8c-.2,.07-.53,.14-.94,.14-.49,0-.89-.17-1.14-.44-.29-.32-.41-.84-.41-1.52v-3.17h-.9v-.8h.9v-1.08l1.03-.31Z"/>
    <path d="M161.06,53.12l1.26,3.43c.14,.38,.29,.84,.38,1.19h.02c.11-.35,.23-.79,.37-1.21l1.15-3.41h1.12l-1.58,4.14c-.76,1.99-1.27,3-1.99,3.63-.53,.44-1.03,.62-1.29,.67l-.26-.88c.26-.08,.61-.25,.92-.52,.29-.23,.64-.63,.89-1.17,.05-.11,.08-.19,.08-.25s-.02-.14-.08-.28l-2.13-5.35h1.15Z"/>
    <path d="M170.05,51.48c0,.36-.25,.65-.67,.65-.38,0-.64-.29-.64-.65s.26-.66,.66-.66,.65,.29,.65,.66Zm-1.18,7.44v-5.8h1.06v5.8h-1.06Z"/>
    <path d="M171.54,57.85c.32,.19,.88,.41,1.4,.41,.76,0,1.12-.37,1.12-.86s-.3-.77-1.07-1.06c-1.06-.38-1.55-.95-1.55-1.64,0-.94,.77-1.7,2-1.7,.59,0,1.1,.16,1.42,.36l-.25,.77c-.23-.14-.65-.35-1.19-.35-.62,0-.96,.36-.96,.79,0,.48,.34,.7,1.09,1,1,.37,1.52,.88,1.52,1.74,0,1.03-.8,1.75-2.16,1.75-.64,0-1.22-.17-1.63-.41l.25-.79Z"/>
    <path d="M178.98,54.93c0-.68-.01-1.27-.05-1.81h.92l.05,1.15h.04c.26-.78,.91-1.27,1.62-1.27,.11,0,.19,.01,.29,.02v1c-.11-.02-.22-.02-.36-.02-.74,0-1.27,.55-1.42,1.34-.02,.14-.04,.32-.04,.49v3.09h-1.06v-3.99Z"/>
    <path d="M183.37,56.21c.02,1.43,.92,2.01,1.99,2.01,.76,0,1.22-.13,1.61-.3l.19,.76c-.37,.17-1.02,.37-1.94,.37-1.79,0-2.85-1.19-2.85-2.94s1.03-3.12,2.72-3.12c1.91,0,2.4,1.66,2.4,2.72,0,.22-.01,.37-.04,.49h-4.08Zm3.09-.76c.01-.66-.28-1.7-1.46-1.7-1.08,0-1.54,.97-1.62,1.7h3.08Z"/>
    <path d="M188.8,50.41h1.06v8.51h-1.06v-8.51Z"/>
    <path d="M195.71,57.53c0,.5,.02,1,.08,1.39h-.95l-.08-.73h-.04c-.32,.46-.95,.86-1.77,.86-1.18,0-1.77-.83-1.77-1.67,0-1.4,1.25-2.17,3.49-2.16v-.12c0-.47-.13-1.34-1.32-1.33-.55,0-1.12,.16-1.52,.43l-.24-.71c.48-.3,1.19-.5,1.92-.5,1.77,0,2.21,1.21,2.21,2.36v2.17Zm-1.02-1.57c-1.15-.02-2.46,.18-2.46,1.31,0,.7,.46,1.01,.98,1.01,.77,0,1.26-.48,1.43-.97,.04-.12,.05-.24,.05-.34v-1.01Z"/>
    <path d="M198.64,51.72v1.39h1.51v.8h-1.51v3.13c0,.72,.2,1.13,.79,1.13,.29,0,.46-.02,.61-.07l.05,.8c-.2,.07-.53,.14-.94,.14-.49,0-.89-.17-1.14-.44-.29-.32-.41-.84-.41-1.52v-3.17h-.9v-.8h.9v-1.08l1.03-.31Z"/>
    <path d="M202.51,51.48c0,.36-.25,.65-.67,.65-.38,0-.64-.29-.64-.65s.26-.66,.66-.66,.65,.29,.65,.66Zm-1.17,7.44v-5.8h1.05v5.8h-1.05Z"/>
    <path d="M204.55,53.12l1.14,3.25c.19,.54,.35,1.02,.47,1.5h.04c.13-.48,.3-.96,.49-1.5l1.13-3.25h1.1l-2.28,5.8h-1.01l-2.21-5.8h1.13Z"/>
    <path d="M210.38,56.21c.02,1.43,.92,2.01,1.99,2.01,.76,0,1.22-.13,1.61-.3l.19,.76c-.37,.17-1.02,.37-1.94,.37-1.79,0-2.85-1.19-2.85-2.94s1.03-3.12,2.72-3.12c1.91,0,2.4,1.66,2.4,2.72,0,.22-.01,.37-.04,.49h-4.08Zm3.09-.76c.01-.66-.28-1.7-1.46-1.7-1.08,0-1.54,.97-1.62,1.7h3.08Z"/>
    <path d="M219.62,51.72v1.39h1.51v.8h-1.51v3.13c0,.72,.2,1.13,.79,1.13,.29,0,.46-.02,.61-.07l.05,.8c-.2,.07-.53,.14-.94,.14-.49,0-.89-.17-1.14-.44-.29-.32-.41-.84-.41-1.52v-3.17h-.9v-.8h.9v-1.08l1.03-.31Z"/>
    <path d="M227.5,55.97c0,2.15-1.5,3.08-2.89,3.08-1.56,0-2.78-1.15-2.78-2.99,0-1.93,1.28-3.07,2.88-3.07s2.79,1.21,2.79,2.97Zm-4.59,.06c0,1.27,.72,2.23,1.75,2.23s1.76-.95,1.76-2.25c0-.98-.49-2.22-1.74-2.22s-1.78,1.15-1.78,2.24Z"/>
    <path d="M236.35,58.07c0,1.34-.28,2.15-.83,2.66-.58,.52-1.39,.7-2.12,.7s-1.46-.17-1.93-.48l.26-.82c.38,.25,.98,.47,1.7,.47,1.08,0,1.87-.56,1.87-2.04v-.64h-.02c-.31,.54-.95,.97-1.85,.97-1.44,0-2.47-1.22-2.47-2.83,0-1.97,1.28-3.07,2.63-3.07,1.01,0,1.55,.52,1.81,1h.02l.04-.88h.94c-.04,.41-.05,.89-.05,1.58v3.37Zm-1.06-2.66c0-.18-.01-.34-.06-.47-.19-.62-.7-1.13-1.48-1.13-1.01,0-1.73,.85-1.73,2.2,0,1.14,.59,2.09,1.71,2.09,.66,0,1.25-.41,1.46-1.08,.06-.18,.08-.38,.08-.56v-1.04Z"/>
    <path d="M238.68,56.21c.02,1.43,.92,2.01,1.99,2.01,.76,0,1.22-.13,1.61-.3l.19,.76c-.37,.17-1.02,.37-1.94,.37-1.79,0-2.85-1.19-2.85-2.94s1.03-3.12,2.72-3.12c1.91,0,2.4,1.66,2.4,2.72,0,.22-.01,.37-.04,.49h-4.08Zm3.09-.76c.01-.66-.28-1.7-1.46-1.7-1.08,0-1.54,.97-1.62,1.7h3.08Z"/>
    <path d="M249.36,55.97c0,2.15-1.5,3.08-2.89,3.08-1.56,0-2.78-1.15-2.78-2.99,0-1.93,1.28-3.07,2.88-3.07s2.79,1.21,2.79,2.97Zm-4.59,.06c0,1.27,.72,2.23,1.75,2.23s1.76-.95,1.76-2.25c0-.98-.49-2.22-1.74-2.22s-1.78,1.15-1.78,2.24Z"/>
    <path d="M255.66,58.07c0,1.34-.28,2.15-.83,2.66-.58,.52-1.39,.7-2.12,.7s-1.46-.17-1.93-.48l.26-.82c.38,.25,.98,.47,1.7,.47,1.08,0,1.87-.56,1.87-2.04v-.64h-.02c-.31,.54-.95,.97-1.85,.97-1.44,0-2.47-1.22-2.47-2.83,0-1.97,1.28-3.07,2.63-3.07,1.01,0,1.55,.52,1.81,1h.02l.04-.88h.94c-.04,.41-.05,.89-.05,1.58v3.37Zm-1.06-2.66c0-.18-.01-.34-.06-.47-.19-.62-.7-1.13-1.48-1.13-1.01,0-1.73,.85-1.73,2.2,0,1.14,.59,2.09,1.71,2.09,.66,0,1.25-.41,1.46-1.08,.06-.18,.08-.38,.08-.56v-1.04Z"/>
    <path d="M257.33,54.93c0-.68-.01-1.27-.05-1.81h.92l.05,1.15h.04c.26-.78,.91-1.27,1.62-1.27,.11,0,.19,.01,.29,.02v1c-.11-.02-.22-.02-.36-.02-.74,0-1.27,.55-1.42,1.34-.02,.14-.04,.32-.04,.49v3.09h-1.05v-3.99Z"/>
    <path d="M265.27,57.53c0,.5,.02,1,.08,1.39h-.95l-.08-.73h-.04c-.32,.46-.95,.86-1.78,.86-1.17,0-1.77-.83-1.77-1.67,0-1.4,1.25-2.17,3.49-2.16v-.12c0-.47-.13-1.34-1.32-1.33-.55,0-1.12,.16-1.52,.43l-.24-.71c.48-.3,1.19-.5,1.92-.5,1.78,0,2.21,1.21,2.21,2.36v2.17Zm-1.02-1.57c-1.15-.02-2.46,.18-2.46,1.31,0,.7,.46,1.01,.98,1.01,.77,0,1.26-.48,1.43-.97,.04-.12,.05-.24,.05-.34v-1.01Z"/>
    <path d="M266.97,55.01c0-.74-.02-1.34-.05-1.9h.94l.06,1h.02c.42-.71,1.12-1.12,2.06-1.12,1.42,0,2.47,1.19,2.47,2.94,0,2.09-1.28,3.12-2.65,3.12-.77,0-1.44-.34-1.79-.91h-.02v3.15h-1.04v-6.28Zm1.04,1.55c0,.16,.01,.3,.05,.43,.19,.73,.83,1.24,1.58,1.24,1.12,0,1.76-.91,1.76-2.24,0-1.15-.61-2.15-1.73-2.15-.72,0-1.4,.5-1.59,1.29-.04,.13-.07,.29-.07,.42v1.01Z"/>
    <path d="M273.8,50.41h1.05v3.63h.02c.17-.3,.43-.58,.76-.76,.31-.18,.68-.29,1.08-.29,.78,0,2.03,.48,2.03,2.47v3.45h-1.05v-3.33c0-.94-.35-1.71-1.34-1.71-.68,0-1.21,.48-1.42,1.04-.06,.16-.07,.31-.07,.5v3.5h-1.05v-8.51Z"/>
    <path d="M280.69,53.12l1.26,3.43c.14,.38,.29,.84,.38,1.19h.02c.11-.35,.23-.79,.37-1.21l1.15-3.41h1.12l-1.58,4.14c-.75,1.99-1.27,3-1.99,3.63-.53,.44-1.03,.62-1.3,.67l-.26-.88c.26-.08,.61-.25,.92-.52,.29-.23,.64-.63,.89-1.17,.05-.11,.08-.19,.08-.25s-.02-.14-.08-.28l-2.13-5.35h1.15Z"/>
  </g>
  <g>
    <path class="cls-6" d="M49.52,260.25c-.27,.11-.84,.3-1.58,.3s-1.36-.18-1.9-.7c-.45-.44-.74-1.17-.74-2.03,0-1.5,.98-2.77,2.81-2.77,.58,0,1.05,.14,1.26,.24l-.13,.32c-.28-.14-.63-.23-1.15-.23-1.48,0-2.39,.96-2.39,2.42s.89,2.42,2.31,2.42c.57,0,.93-.08,1.13-.18v-1.9h-1.25v-.31h1.63v2.43Z"/>
    <path class="cls-6" d="M50.73,258.53c0,1.22,.66,1.71,1.46,1.71,.56,0,.85-.11,1.06-.22l.1,.3c-.14,.08-.54,.25-1.21,.25-1.1,0-1.79-.8-1.79-1.93,0-1.28,.74-2.08,1.73-2.08,1.26,0,1.5,1.18,1.5,1.73,0,.1,0,.16-.02,.23h-2.83Zm2.45-.3c0-.54-.22-1.34-1.14-1.34-.85,0-1.22,.75-1.29,1.34h2.43Z"/>
    <path class="cls-6" d="M57.84,258.53c0,1.43-.98,2.05-1.84,2.05-.99,0-1.76-.78-1.76-1.98,0-1.31,.86-2.04,1.82-2.04,1.06,0,1.78,.8,1.78,1.97Zm-3.21,.05c0,.96,.62,1.68,1.4,1.68s1.43-.72,1.43-1.7c0-.7-.39-1.67-1.41-1.67s-1.42,.87-1.42,1.7Z"/>
    <path class="cls-6" d="M61.88,259.93c0,.98-.21,1.47-.53,1.77-.35,.34-.87,.46-1.3,.46s-.93-.11-1.22-.34l.14-.3c.27,.18,.65,.32,1.14,.32,.81,0,1.39-.42,1.39-1.55v-.54h-.02c-.2,.39-.65,.74-1.33,.74-.97,0-1.65-.84-1.65-1.89,0-1.33,.88-2.04,1.73-2.04,.76,0,1.14,.42,1.3,.74h.02l.02-.65h.35c-.02,.29-.03,.59-.03,.99v2.29Zm-.38-1.8c0-.14,0-.26-.05-.38-.16-.46-.56-.87-1.19-.87-.82,0-1.38,.66-1.38,1.68,0,.86,.46,1.61,1.36,1.61,.52,0,.99-.31,1.19-.86,.04-.13,.06-.27,.06-.41v-.77Z"/>
    <path class="cls-6" d="M63.09,257.81c0-.38,0-.78-.03-1.15h.35l.02,.78h.02c.17-.48,.57-.86,1.09-.86,.06,0,.11,0,.16,.02v.37c-.06-.02-.11-.02-.18-.02-.53,0-.9,.46-1.01,1.07-.02,.11-.03,.24-.03,.37v2.12h-.38v-2.69Z"/>
    <path class="cls-6" d="M67.85,259.58c0,.3,0,.62,.06,.91h-.35l-.06-.55h-.02c-.19,.3-.62,.64-1.23,.64-.78,0-1.13-.54-1.13-1.06,0-.89,.78-1.42,2.34-1.41v-.1c0-.38-.07-1.14-.98-1.13-.34,0-.69,.09-.97,.29l-.12-.28c.35-.23,.78-.33,1.13-.33,1.11,0,1.33,.83,1.33,1.51v1.5Zm-.38-1.14c-.84-.02-1.94,.1-1.94,1.02,0,.55,.37,.8,.77,.8,.64,0,1.01-.39,1.14-.77,.03-.08,.04-.17,.04-.23v-.82Z"/>
    <path class="cls-6" d="M69.09,257.88c0-.48,0-.86-.03-1.22h.37l.02,.73h.02c.28-.5,.75-.82,1.42-.82,.99,0,1.66,.82,1.66,1.94,0,1.37-.82,2.07-1.74,2.07-.55,0-1.04-.25-1.3-.71h-.02v2.21h-.38v-4.2Zm.38,1.1c0,.1,0,.21,.03,.3,.16,.59,.67,.98,1.26,.98,.88,0,1.38-.71,1.38-1.73,0-.86-.48-1.64-1.35-1.64-.56,0-1.1,.38-1.27,1.02-.02,.1-.06,.22-.06,.33v.75Z"/>
    <path class="cls-6" d="M73.51,254.82h.38v2.53h.02c.11-.22,.3-.42,.52-.55,.22-.14,.49-.22,.78-.22,.36,0,1.33,.18,1.33,1.62v2.31h-.38v-2.27c0-.7-.27-1.32-1.06-1.32-.54,0-.99,.39-1.16,.86-.04,.12-.05,.22-.05,.38v2.34h-.38v-5.68Z"/>
    <path class="cls-6" d="M77.57,256.66l1.01,2.51c.1,.27,.21,.58,.28,.82h.02c.08-.23,.18-.54,.3-.85l.94-2.49h.41l-1.15,2.86c-.46,1.19-.79,1.9-1.3,2.34-.3,.26-.58,.37-.67,.4l-.12-.32c.19-.07,.45-.21,.67-.42,.19-.19,.45-.51,.64-.97,.03-.08,.05-.13,.05-.17,0-.03-.02-.09-.05-.17l-1.42-3.56h.41Z"/>
    <path class="cls-6" d="M82.82,259.9c.3,.21,.73,.35,1.18,.35,.81,0,1.3-.46,1.3-1.12,0-.61-.31-.96-1.1-1.26-.86-.3-1.38-.75-1.38-1.49,0-.79,.65-1.37,1.57-1.37,.5,0,.89,.13,1.07,.26l-.14,.32c-.14-.1-.49-.26-.95-.26-.87,0-1.17,.56-1.17,.98,0,.6,.34,.9,1.12,1.21,.89,.36,1.36,.76,1.36,1.57s-.56,1.49-1.71,1.49c-.46,0-1.01-.15-1.29-.37l.14-.31Z"/>
    <path class="cls-6" d="M87.2,255.56c0,.18-.12,.33-.32,.33-.18,0-.3-.15-.3-.33s.14-.34,.31-.34,.3,.15,.3,.34Zm-.5,4.93v-3.84h.38v3.84h-.38Z"/>
    <path class="cls-6" d="M87.85,260.26l2.07-2.73c.14-.18,.29-.36,.44-.55v-.02h-2.34v-.31h2.81v.26s-2.08,2.73-2.08,2.73c-.14,.18-.26,.35-.41,.53v.02h2.49v.31h-2.98v-.23Z"/>
    <path class="cls-6" d="M91.59,258.53c0,1.22,.66,1.71,1.46,1.71,.56,0,.85-.11,1.06-.22l.1,.3c-.14,.08-.54,.25-1.21,.25-1.1,0-1.79-.8-1.79-1.93,0-1.28,.74-2.08,1.73-2.08,1.26,0,1.5,1.18,1.5,1.73,0,.1,0,.16-.02,.23h-2.83Zm2.45-.3c0-.54-.22-1.34-1.14-1.34-.85,0-1.22,.75-1.29,1.34h2.43Z"/>
  </g>
  <g>
    <path class="cls-6" d="M39.96,250.68l1.89,.66v.39l-5.39-1.95v-.37l5.39-1.94v.39l-1.89,.68v2.13Zm-.32-2.02l-1.8,.66c-.38,.14-.65,.21-.95,.28v.02c.31,.07,.59,.16,.94,.28l1.82,.66v-1.9Z"/>
    <path class="cls-6" d="M41.68,244.08c.08,.17,.25,.57,.25,1.13,0,1.1-.81,1.84-1.96,1.84-1.22,0-2.05-.83-2.05-1.97,0-.47,.14-.86,.24-1.01l.31,.14c-.1,.18-.22,.48-.22,.9,0,1.03,.79,1.56,1.69,1.56,1.01,0,1.66-.63,1.66-1.52,0-.46-.13-.75-.22-.96l.3-.1Z"/>
    <path class="cls-6" d="M41.68,240.51c.08,.17,.25,.57,.25,1.13,0,1.1-.81,1.84-1.96,1.84-1.22,0-2.05-.83-2.05-1.97,0-.47,.14-.86,.24-1.01l.31,.14c-.1,.18-.22,.48-.22,.9,0,1.03,.79,1.56,1.69,1.56,1.01,0,1.66-.63,1.66-1.52,0-.46-.13-.75-.22-.96l.3-.1Z"/>
    <path class="cls-6" d="M40.92,236.63c.34,0,.64,0,.94-.03v.36l-.69,.02v.02c.36,.19,.78,.63,.78,1.31,0,.49-.25,1.31-1.69,1.31h-2.23v-.38h2.16c.83,0,1.43-.26,1.43-1.02,0-.56-.39-.97-.78-1.14-.12-.04-.27-.07-.42-.07h-2.39v-.38h2.9Z"/>
    <path class="cls-6" d="M39.16,235.35c-.38,0-.78,0-1.15,.03v-.35l.78-.02v-.02c-.48-.17-.86-.57-.86-1.09,0-.06,0-.11,.02-.16h.37c-.02,.06-.02,.11-.02,.18,0,.53,.46,.9,1.07,1.01,.11,.02,.24,.03,.37,.03h2.12v.38h-2.69Z"/>
    <path class="cls-6" d="M40.94,230.59c.3,0,.62,0,.91-.06v.35l-.55,.06v.02c.3,.19,.64,.62,.64,1.23,0,.78-.54,1.13-1.06,1.13-.89,0-1.42-.78-1.41-2.34h-.1c-.38,0-1.14,.07-1.13,.98,0,.33,.09,.69,.29,.97l-.28,.12c-.23-.35-.33-.78-.33-1.13,0-1.11,.83-1.33,1.51-1.33h1.5Zm-1.14,.38c-.02,.84,.1,1.94,1.02,1.94,.55,0,.8-.37,.8-.77,0-.64-.39-1.01-.77-1.14-.08-.03-.17-.04-.23-.04h-.82Z"/>
    <path class="cls-6" d="M41.68,226.7c.08,.17,.25,.57,.25,1.13,0,1.1-.81,1.84-1.96,1.84-1.22,0-2.05-.83-2.05-1.98,0-.47,.14-.86,.24-1.01l.31,.13c-.1,.18-.22,.48-.22,.9,0,1.03,.79,1.56,1.69,1.56,1.01,0,1.66-.63,1.66-1.52,0-.46-.13-.75-.22-.96l.3-.1Z"/>
    <path class="cls-6" d="M38.01,225.78l2.51-1.01c.27-.1,.58-.21,.82-.28v-.02c-.23-.08-.54-.18-.85-.3l-2.49-.94v-.41l2.86,1.15c1.19,.46,1.9,.79,2.34,1.29,.26,.3,.37,.58,.4,.67l-.32,.12c-.07-.19-.21-.45-.42-.67-.19-.19-.51-.45-.97-.64-.08-.03-.13-.05-.17-.05-.03,0-.09,.02-.17,.05l-3.56,1.42v-.41Z"/>
  </g>
  <line class="cls-2" x1="45" y1="210.52" x2="504" y2="210.52"/>
  <line class="cls-2" x1="45" y1="169.13" x2="504.56" y2="169.13"/>
  <line class="cls-2" x1="45" y1="127.74" x2="504.56" y2="127.74"/>
  <line class="cls-2" x1="45" y1="86.35" x2="504.56" y2="86.35"/>
  <circle class="cls-7" cx="104.86" cy="210.63" r="30.37"/>
  <g>
    <path d="M95.05,206.84c.47-.08,1.13-.14,2.06-.14s1.61,.18,2.06,.54c.43,.34,.72,.9,.72,1.56s-.22,1.22-.62,1.6c-.52,.49-1.29,.71-2.19,.71-.2,0-.38,0-.52-.03v2.41h-1.51v-6.65Zm1.51,3.06c.13,.03,.29,.04,.51,.04,.81,0,1.31-.41,1.31-1.1,0-.62-.43-.99-1.19-.99-.31,0-.52,.03-.63,.06v1.99Z"/>
    <path d="M105.4,210.99c0,1.79-1.27,2.61-2.58,2.61-1.43,0-2.53-.94-2.53-2.52s1.04-2.59,2.61-2.59,2.5,1.03,2.5,2.5Zm-3.54,.05c0,.84,.35,1.47,1,1.47,.59,0,.97-.59,.97-1.47,0-.73-.28-1.47-.97-1.47-.73,0-1,.75-1,1.47Z"/>
    <path d="M111.2,210.99c0,1.79-1.27,2.61-2.58,2.61-1.43,0-2.53-.94-2.53-2.52s1.04-2.59,2.61-2.59,2.5,1.03,2.5,2.5Zm-3.54,.05c0,.84,.35,1.47,1,1.47,.59,0,.97-.59,.97-1.47,0-.73-.28-1.47-.97-1.47-.73,0-1,.75-1,1.47Z"/>
    <path d="M112.14,210.21c0-.72-.02-1.19-.04-1.61h1.31l.05,.9h.04c.25-.71,.85-1.01,1.32-1.01,.14,0,.21,0,.32,.02v1.43c-.11-.02-.24-.04-.41-.04-.56,0-.94,.3-1.04,.77-.02,.1-.03,.22-.03,.34v2.48h-1.52v-3.28Z"/>
  </g>
  <circle class="cls-7" cx="251.34" cy="169.13" r="40.5"/>
  <g>
    <path d="M245.4,171.68c-.47,.16-1.36,.38-2.25,.38-1.23,0-2.12-.31-2.74-.91-.62-.58-.96-1.46-.95-2.45,0-2.24,1.64-3.52,3.85-3.52,.87,0,1.54,.17,1.87,.33l-.32,1.22c-.37-.16-.83-.29-1.57-.29-1.27,0-2.23,.72-2.23,2.18s.87,2.21,2.12,2.21c.35,0,.63-.04,.75-.1v-1.41h-1.04v-1.19h2.51v3.55Z"/>
    <path d="M251.43,169.49c0,1.79-1.27,2.61-2.58,2.61-1.43,0-2.53-.94-2.53-2.52s1.04-2.59,2.61-2.59,2.5,1.03,2.5,2.5Zm-3.54,.05c0,.84,.35,1.47,1,1.47,.59,0,.97-.59,.97-1.47,0-.73-.28-1.47-.97-1.47-.73,0-1,.75-1,1.47Z"/>
    <path d="M257.23,169.49c0,1.79-1.27,2.61-2.58,2.61-1.43,0-2.53-.94-2.53-2.52s1.04-2.59,2.61-2.59,2.5,1.03,2.5,2.5Zm-3.54,.05c0,.84,.35,1.47,1,1.47,.59,0,.97-.59,.97-1.47,0-.73-.28-1.47-.97-1.47-.73,0-1,.75-1,1.47Z"/>
    <path d="M262.94,164.9v5.64c0,.55,.02,1.13,.04,1.46h-1.35l-.07-.72h-.02c-.31,.55-.9,.83-1.53,.83-1.16,0-2.09-.99-2.09-2.51,0-1.65,1.02-2.6,2.19-2.6,.6,0,1.07,.21,1.29,.55h.02v-2.65h1.52Zm-1.52,4.28c0-.08-.01-.19-.02-.27-.09-.41-.42-.75-.89-.75-.69,0-1.05,.62-1.05,1.39,0,.83,.41,1.35,1.04,1.35,.44,0,.79-.3,.88-.73,.03-.11,.04-.22,.04-.35v-.64Z"/>
  </g>
  <circle class="cls-7" cx="421.44" cy="127.74" r="54"/>
  <g>
    <path d="M405.99,127.75h-2.48v1.6h2.77v1.25h-4.3v-6.74h4.16v1.25h-2.63v1.4h2.48v1.24Z"/>
    <path d="M408.43,125.71l.48,.81c.14,.25,.27,.5,.4,.73h.02c.13-.26,.25-.51,.38-.75l.43-.79h1.65l-1.61,2.33,1.63,2.56h-1.72l-.49-.88c-.14-.24-.26-.49-.38-.74h-.03c-.12,.26-.25,.5-.37,.74l-.46,.88h-1.67l1.66-2.49-1.62-2.4h1.7Z"/>
    <path d="M415.91,130.48c-.27,.12-.78,.22-1.36,.22-1.58,0-2.59-.96-2.59-2.5,0-1.43,.98-2.6,2.8-2.6,.4,0,.84,.07,1.16,.19l-.24,1.13c-.18-.08-.45-.15-.85-.15-.8,0-1.32,.57-1.31,1.37,0,.9,.6,1.37,1.34,1.37,.36,0,.64-.06,.87-.15l.18,1.12Z"/>
    <path d="M417.81,128.64c.05,.63,.67,.93,1.38,.93,.52,0,.94-.07,1.35-.2l.2,1.03c-.5,.2-1.11,.3-1.77,.3-1.66,0-2.61-.96-2.61-2.49,0-1.24,.77-2.61,2.47-2.61,1.58,0,2.18,1.23,2.18,2.44,0,.26-.03,.49-.05,.6h-3.15Zm1.79-1.04c0-.37-.16-.99-.86-.99-.64,0-.9,.58-.94,.99h1.8Z"/>
    <path d="M421.92,123.5h1.52v7.1h-1.52v-7.1Z"/>
    <path d="M424.67,123.5h1.52v7.1h-1.52v-7.1Z"/>
    <path d="M428.59,128.64c.05,.63,.67,.93,1.38,.93,.52,0,.94-.07,1.35-.2l.2,1.03c-.5,.2-1.11,.3-1.77,.3-1.66,0-2.61-.96-2.61-2.49,0-1.24,.77-2.61,2.47-2.61,1.58,0,2.18,1.23,2.18,2.44,0,.26-.03,.49-.05,.6h-3.15Zm1.79-1.04c0-.37-.16-.99-.86-.99-.64,0-.9,.58-.94,.99h1.8Z"/>
    <path d="M432.7,127.27c0-.61-.02-1.13-.04-1.56h1.32l.07,.67h.03c.2-.31,.7-.78,1.51-.78,1,0,1.75,.66,1.75,2.1v2.9h-1.52v-2.71c0-.63-.22-1.06-.77-1.06-.42,0-.67,.29-.77,.57-.04,.09-.06,.24-.06,.38v2.82h-1.52v-3.33Z"/>
    <path d="M440.2,124.31v1.4h1.09v1.12h-1.09v1.77c0,.59,.14,.86,.6,.86,.19,0,.34-.02,.45-.04v1.15c-.19,.08-.55,.13-.98,.13-.49,0-.9-.17-1.14-.42-.28-.29-.42-.76-.42-1.45v-2h-.65v-1.12h.65v-1.06l1.49-.34Z"/>
  </g>
  <line class="cls-3" x1="104.71" y1="217.15" x2="104.71" y2="287.76"/>
  <line class="cls-3" x1="251.34" y1="174.82" x2="251.34" y2="287.76"/>
  <line class="cls-3" x1="421.44" y1="133.92" x2="421.44" y2="287.76"/>
  <g>
    <path d="M430.8,274.91c-.31,.16-.96,.32-1.78,.32-1.9,0-3.32-1.2-3.32-3.42s1.43-3.54,3.52-3.54c.83,0,1.37,.18,1.6,.3l-.22,.71c-.32-.16-.79-.28-1.35-.28-1.58,0-2.63,1.01-2.63,2.78,0,1.66,.95,2.71,2.58,2.71,.54,0,1.08-.11,1.43-.28l.17,.7Z"/>
    <path d="M431.87,268.03h.88v7.1h-.88v-7.1Z"/>
    <path d="M435.21,268.93c0,.3-.21,.54-.56,.54-.32,0-.53-.24-.53-.54s.22-.55,.55-.55,.54,.24,.54,.55Zm-.98,6.2v-4.84h.88v4.84h-.88Z"/>
    <path d="M436.57,271.59c0-.51-.02-.91-.04-1.31h.77l.04,.79h.03c.27-.46,.72-.89,1.53-.89,.65,0,1.15,.4,1.36,.97h.02c.15-.28,.35-.48,.55-.63,.29-.22,.6-.34,1.06-.34,.65,0,1.6,.42,1.6,2.1v2.84h-.86v-2.73c0-.94-.35-1.49-1.05-1.49-.51,0-.89,.37-1.05,.79-.04,.13-.07,.28-.07,.44v2.99h-.86v-2.9c0-.77-.34-1.32-1.01-1.32-.54,0-.95,.44-1.09,.88-.05,.12-.07,.28-.07,.43v2.91h-.86v-3.53Z"/>
    <path d="M448.31,273.96c0,.42,.02,.83,.07,1.16h-.79l-.07-.61h-.03c-.27,.38-.79,.72-1.48,.72-.98,0-1.48-.69-1.48-1.39,0-1.17,1.04-1.81,2.91-1.8v-.1c0-.39-.11-1.12-1.1-1.11-.46,0-.93,.13-1.27,.36l-.2-.59c.4-.25,.99-.42,1.6-.42,1.48,0,1.84,1.01,1.84,1.97v1.81Zm-.85-1.31c-.96-.02-2.05,.15-2.05,1.09,0,.58,.38,.84,.82,.84,.64,0,1.05-.4,1.19-.81,.03-.1,.04-.2,.04-.28v-.84Z"/>
    <path d="M450.75,269.13v1.16h1.26v.67h-1.26v2.61c0,.6,.17,.94,.66,.94,.24,0,.38-.02,.51-.06l.04,.67c-.17,.06-.44,.12-.78,.12-.41,0-.74-.14-.95-.37-.24-.27-.34-.7-.34-1.27v-2.64h-.75v-.67h.75v-.9l.86-.26Z"/>
    <path d="M453.43,272.86c.02,1.19,.77,1.68,1.66,1.68,.63,0,1.02-.11,1.34-.25l.16,.63c-.31,.14-.85,.31-1.62,.31-1.49,0-2.38-.99-2.38-2.45s.86-2.6,2.27-2.6c1.59,0,2,1.38,2,2.27,0,.18-.01,.31-.03,.41h-3.4Zm2.58-.63c0-.55-.23-1.42-1.22-1.42-.9,0-1.28,.81-1.35,1.42h2.57Z"/>
    <path d="M459.52,274.61l2.18-2.85c.22-.27,.42-.5,.64-.76v-.02h-2.62v-.7h3.68v.55l-2.16,2.81c-.21,.27-.4,.52-.62,.76v.02h2.82v.7h-3.92v-.51Z"/>
    <path d="M468.66,272.66c0,1.79-1.25,2.57-2.41,2.57-1.3,0-2.32-.96-2.32-2.49,0-1.61,1.07-2.56,2.4-2.56s2.33,1.01,2.33,2.48Zm-3.83,.05c0,1.06,.6,1.86,1.46,1.86s1.47-.79,1.47-1.88c0-.82-.41-1.85-1.45-1.85s-1.48,.96-1.48,1.87Z"/>
    <path d="M469.77,271.59c0-.51,0-.91-.04-1.31h.78l.05,.8h.02c.24-.45,.8-.9,1.6-.9,.67,0,1.71,.4,1.71,2.06v2.88h-.88v-2.79c0-.78-.29-1.43-1.12-1.43-.57,0-1.02,.41-1.18,.9-.04,.11-.06,.26-.06,.41v2.91h-.88v-3.53Z"/>
    <path d="M475.81,272.86c.02,1.19,.77,1.68,1.66,1.68,.63,0,1.02-.11,1.34-.25l.16,.63c-.31,.14-.85,.31-1.62,.31-1.49,0-2.38-.99-2.38-2.45s.86-2.6,2.27-2.6c1.59,0,2,1.38,2,2.27,0,.18-.01,.31-.03,.41h-3.4Zm2.58-.63c0-.55-.23-1.42-1.22-1.42-.9,0-1.28,.81-1.35,1.42h2.57Z"/>
    <path d="M479.64,276.36c.22-.6,.49-1.67,.6-2.4l.98-.1c-.24,.85-.68,1.96-.96,2.43l-.62,.07Z"/>
    <path d="M426.97,279.39v6.74h-.88v-6.74h.88Z"/>
    <path d="M428.38,285.06c.39,.25,.95,.44,1.55,.44,.89,0,1.41-.47,1.41-1.15,0-.62-.36-.99-1.27-1.33-1.1-.4-1.78-.98-1.78-1.92,0-1.05,.87-1.83,2.18-1.83,.68,0,1.19,.16,1.48,.33l-.24,.71c-.21-.13-.66-.32-1.27-.32-.92,0-1.27,.55-1.27,1.01,0,.63,.41,.94,1.34,1.3,1.14,.44,1.71,.99,1.71,1.98,0,1.04-.76,1.95-2.35,1.95-.65,0-1.36-.2-1.72-.44l.23-.73Z"/>
    <path d="M439.18,282.68c0,2.31-1.41,3.55-3.13,3.55s-3.03-1.39-3.03-3.43c0-2.14,1.32-3.54,3.12-3.54s3.04,1.41,3.04,3.42Zm-5.24,.1c0,1.45,.78,2.74,2.16,2.74s2.16-1.27,2.16-2.8c0-1.35-.7-2.75-2.15-2.75s-2.17,1.34-2.17,2.81Z"/>
    <path d="M442.4,282.79c0-.57,0-1.06-.04-1.51h.77l.04,.96h.03c.22-.65,.76-1.06,1.35-1.06,.09,0,.16,.01,.24,.02v.83c-.09-.02-.18-.02-.3-.02-.62,0-1.06,.46-1.18,1.12-.02,.12-.03,.27-.03,.41v2.58h-.88v-3.33Z"/>
    <path d="M446.06,283.86c.02,1.19,.77,1.68,1.66,1.68,.63,0,1.02-.11,1.34-.25l.16,.63c-.31,.14-.85,.31-1.62,.31-1.49,0-2.38-.99-2.38-2.45s.86-2.6,2.27-2.6c1.59,0,2,1.38,2,2.27,0,.18,0,.31-.03,.41h-3.4Zm2.58-.63c.01-.55-.23-1.42-1.22-1.42-.9,0-1.28,.81-1.35,1.42h2.57Z"/>
    <path d="M454.72,285.41c0,1.12-.23,1.79-.69,2.22-.48,.43-1.16,.58-1.77,.58s-1.22-.14-1.61-.4l.22-.68c.32,.21,.82,.39,1.42,.39,.9,0,1.56-.47,1.56-1.7v-.53h-.02c-.26,.45-.79,.81-1.54,.81-1.2,0-2.06-1.02-2.06-2.36,0-1.64,1.07-2.56,2.19-2.56,.84,0,1.29,.43,1.51,.83h.02l.03-.73h.78c-.03,.34-.04,.74-.04,1.32v2.81Zm-.88-2.22c0-.15,0-.28-.05-.39-.16-.52-.58-.94-1.23-.94-.84,0-1.44,.71-1.44,1.83,0,.95,.49,1.74,1.43,1.74,.55,0,1.04-.34,1.22-.9,.05-.15,.07-.32,.07-.47v-.87Z"/>
    <path d="M457.09,279.93c0,.3-.21,.54-.56,.54-.32,0-.53-.24-.53-.54s.22-.55,.55-.55,.54,.24,.54,.55Zm-.98,6.2v-4.84h.88v4.84h-.88Z"/>
    <path d="M462.83,283.66c0,1.79-1.25,2.57-2.41,2.57-1.3,0-2.32-.96-2.32-2.49,0-1.61,1.07-2.56,2.4-2.56s2.33,1.01,2.33,2.48Zm-3.83,.05c0,1.06,.6,1.86,1.46,1.86s1.47-.79,1.47-1.88c0-.82-.41-1.85-1.45-1.85s-1.48,.96-1.48,1.87Z"/>
    <path d="M463.94,282.59c0-.51,0-.91-.04-1.31h.78l.05,.8h.02c.24-.45,.8-.9,1.6-.9,.67,0,1.71,.4,1.71,2.06v2.88h-.88v-2.79c0-.78-.29-1.43-1.12-1.43-.57,0-1.02,.41-1.18,.9-.04,.11-.06,.26-.06,.41v2.91h-.88v-3.53Z"/>
    <path d="M468.92,287.36c.22-.6,.49-1.67,.6-2.4l.98-.1c-.24,.85-.68,1.96-.96,2.43l-.62,.07Z"/>
    <path d="M478.06,283.66c0,1.79-1.25,2.57-2.41,2.57-1.3,0-2.32-.96-2.32-2.49,0-1.61,1.07-2.56,2.4-2.56s2.33,1.01,2.33,2.48Zm-3.83,.05c0,1.06,.6,1.86,1.46,1.86s1.47-.79,1.47-1.88c0-.82-.41-1.85-1.45-1.85s-1.48,.96-1.48,1.87Z"/>
    <path d="M479.17,282.79c0-.57,0-1.06-.04-1.51h.77l.04,.96h.03c.22-.65,.76-1.06,1.35-1.06,.09,0,.16,.01,.24,.02v.83c-.09-.02-.18-.02-.3-.02-.62,0-1.06,.46-1.18,1.12-.02,.12-.03,.27-.03,.41v2.58h-.88v-3.33Z"/>
    <path d="M484.44,285.23c.27,.16,.73,.34,1.17,.34,.63,0,.93-.31,.93-.72s-.25-.64-.89-.88c-.88-.32-1.29-.79-1.29-1.37,0-.78,.64-1.42,1.67-1.42,.49,0,.92,.13,1.18,.3l-.21,.64c-.19-.12-.54-.29-.99-.29-.52,0-.8,.3-.8,.66,0,.4,.28,.58,.91,.83,.83,.31,1.27,.73,1.27,1.45,0,.86-.67,1.46-1.8,1.46-.53,0-1.02-.14-1.36-.34l.21-.66Z"/>
    <path d="M489.58,280.13v1.16h1.26v.67h-1.26v2.61c0,.6,.17,.94,.66,.94,.24,0,.38-.02,.51-.06l.04,.67c-.17,.06-.44,.12-.78,.12-.41,0-.74-.14-.95-.37-.24-.27-.34-.7-.34-1.27v-2.64h-.75v-.67h.75v-.9l.86-.26Z"/>
    <path d="M495.23,284.96c0,.42,.02,.83,.07,1.16h-.79l-.07-.61h-.03c-.27,.38-.79,.72-1.48,.72-.98,0-1.48-.69-1.48-1.39,0-1.17,1.04-1.81,2.91-1.8v-.1c0-.39-.11-1.12-1.1-1.11-.46,0-.93,.13-1.27,.36l-.2-.59c.4-.25,.99-.42,1.6-.42,1.48,0,1.84,1.01,1.84,1.97v1.81Zm-.85-1.31c-.96-.02-2.05,.15-2.05,1.09,0,.58,.38,.84,.82,.84,.64,0,1.05-.4,1.19-.81,.03-.1,.04-.2,.04-.28v-.84Z"/>
    <path d="M497.67,280.13v1.16h1.26v.67h-1.26v2.61c0,.6,.17,.94,.66,.94,.24,0,.38-.02,.51-.06l.04,.67c-.17,.06-.44,.12-.78,.12-.41,0-.74-.14-.95-.37-.24-.27-.34-.7-.34-1.27v-2.64h-.75v-.67h.75v-.9l.86-.26Z"/>
    <path d="M500.35,283.86c.02,1.19,.77,1.68,1.66,1.68,.63,0,1.02-.11,1.34-.25l.16,.63c-.31,.14-.85,.31-1.62,.31-1.49,0-2.38-.99-2.38-2.45s.86-2.6,2.27-2.6c1.59,0,2,1.38,2,2.27,0,.18,0,.31-.03,.41h-3.4Zm2.58-.63c.01-.55-.23-1.42-1.22-1.42-.9,0-1.28,.81-1.35,1.42h2.57Z"/>
  </g>
  <g>
    <path d="M260.7,274.91c-.31,.16-.96,.32-1.78,.32-1.9,0-3.32-1.2-3.32-3.42s1.43-3.54,3.52-3.54c.83,0,1.37,.18,1.6,.3l-.22,.71c-.32-.16-.79-.28-1.35-.28-1.58,0-2.63,1.01-2.63,2.78,0,1.66,.95,2.71,2.58,2.71,.54,0,1.08-.11,1.43-.28l.17,.7Z"/>
    <path d="M266.04,272.66c0,1.79-1.25,2.57-2.41,2.57-1.3,0-2.32-.96-2.32-2.49,0-1.61,1.07-2.56,2.4-2.56s2.33,1.01,2.33,2.48Zm-3.83,.05c0,1.06,.6,1.86,1.46,1.86s1.47-.79,1.47-1.88c0-.82-.41-1.85-1.45-1.85s-1.48,.96-1.48,1.87Z"/>
    <path d="M271.2,273.79c0,.51,.01,.95,.04,1.33h-.78l-.05-.79h-.02c-.22,.39-.74,.9-1.6,.9-.76,0-1.67-.43-1.67-2.12v-2.83h.88v2.67c0,.92,.29,1.55,1.08,1.55,.59,0,1-.41,1.16-.81,.05-.12,.08-.28,.08-.45v-2.96h.88v3.51Z"/>
    <path d="M272.66,271.59c0-.51,0-.91-.04-1.31h.78l.05,.8h.02c.24-.45,.8-.9,1.6-.9,.67,0,1.71,.4,1.71,2.06v2.88h-.88v-2.79c0-.78-.29-1.43-1.12-1.43-.57,0-1.02,.41-1.18,.9-.04,.11-.06,.26-.06,.41v2.91h-.88v-3.53Z"/>
    <path d="M279.23,269.13v1.16h1.26v.67h-1.26v2.61c0,.6,.17,.94,.66,.94,.24,0,.38-.02,.51-.06l.04,.67c-.17,.06-.44,.12-.78,.12-.41,0-.74-.14-.95-.37-.24-.27-.34-.7-.34-1.27v-2.64h-.75v-.67h.75v-.9l.86-.26Z"/>
    <path d="M281.89,270.29l1.05,2.86c.12,.32,.24,.7,.32,.99h.02c.09-.29,.19-.66,.31-1.01l.96-2.84h.93l-1.32,3.45c-.63,1.66-1.06,2.5-1.66,3.03-.44,.37-.86,.52-1.08,.56l-.22-.73c.22-.07,.51-.21,.77-.43,.24-.19,.53-.53,.74-.98,.04-.09,.07-.16,.07-.21s-.02-.12-.07-.23l-1.78-4.46h.96Z"/>
    <path d="M288.75,270.29l.65,2.46c.13,.54,.26,1.04,.35,1.54h.03c.11-.49,.27-1.01,.43-1.53l.79-2.47h.74l.75,2.42c.18,.58,.32,1.09,.43,1.58h.03c.08-.49,.21-1,.37-1.57l.69-2.43h.87l-1.56,4.84h-.8l-.74-2.31c-.17-.54-.31-1.02-.43-1.59h-.02c-.12,.58-.27,1.08-.44,1.6l-.78,2.3h-.8l-1.46-4.84h.9Z"/>
    <path d="M296.74,268.93c0,.3-.21,.54-.56,.54-.32,0-.53-.24-.53-.54s.22-.55,.55-.55,.54,.24,.54,.55Zm-.98,6.2v-4.84h.88v4.84h-.88Z"/>
    <path d="M299.16,269.13v1.16h1.26v.67h-1.26v2.61c0,.6,.17,.94,.66,.94,.24,0,.38-.02,.51-.06l.04,.67c-.17,.06-.44,.12-.78,.12-.41,0-.74-.14-.95-.37-.24-.27-.34-.7-.34-1.27v-2.64h-.75v-.67h.75v-.9l.86-.26Z"/>
    <path d="M301.41,268.03h.88v3.03h.02c.14-.25,.36-.48,.63-.63,.26-.15,.57-.24,.9-.24,.65,0,1.69,.4,1.69,2.06v2.88h-.88v-2.78c0-.78-.29-1.43-1.12-1.43-.57,0-1.01,.4-1.18,.87-.05,.13-.06,.26-.06,.42v2.92h-.88v-7.1Z"/>
    <path d="M309.08,271.59c0-.51-.02-.91-.04-1.31h.77l.04,.79h.03c.27-.46,.72-.89,1.53-.89,.65,0,1.15,.4,1.36,.97h.02c.15-.28,.35-.48,.55-.63,.29-.22,.6-.34,1.06-.34,.65,0,1.6,.42,1.6,2.1v2.84h-.86v-2.73c0-.94-.35-1.49-1.05-1.49-.51,0-.89,.37-1.05,.79-.04,.13-.07,.28-.07,.44v2.99h-.86v-2.9c0-.77-.34-1.32-1.01-1.32-.54,0-.95,.44-1.09,.88-.05,.12-.07,.28-.07,.43v2.91h-.86v-3.53Z"/>
    <path d="M321.8,272.66c0,1.79-1.25,2.57-2.41,2.57-1.3,0-2.32-.96-2.32-2.49,0-1.61,1.07-2.56,2.4-2.56s2.33,1.01,2.33,2.48Zm-3.83,.05c0,1.06,.6,1.86,1.46,1.86s1.47-.79,1.47-1.88c0-.82-.41-1.85-1.45-1.85s-1.48,.96-1.48,1.87Z"/>
    <path d="M322.91,271.79c0-.57,0-1.06-.04-1.51h.77l.04,.96h.03c.22-.65,.76-1.06,1.35-1.06,.09,0,.16,.01,.24,.02v.83c-.09-.02-.18-.02-.3-.02-.62,0-1.06,.46-1.18,1.12-.02,.12-.03,.27-.03,.41v2.58h-.88v-3.33Z"/>
    <path d="M326.57,272.86c.02,1.19,.77,1.68,1.66,1.68,.63,0,1.02-.11,1.34-.25l.16,.63c-.31,.14-.85,.31-1.62,.31-1.49,0-2.38-.99-2.38-2.45s.86-2.6,2.27-2.6c1.59,0,2,1.38,2,2.27,0,.18,0,.31-.03,.41h-3.4Zm2.58-.63c.01-.55-.23-1.42-1.22-1.42-.9,0-1.28,.81-1.35,1.42h2.57Z"/>
    <path d="M257.03,280.13v1.16h1.26v.67h-1.26v2.61c0,.6,.17,.94,.66,.94,.24,0,.38-.02,.51-.06l.04,.67c-.17,.06-.44,.12-.78,.12-.41,0-.74-.14-.95-.37-.24-.27-.34-.7-.34-1.27v-2.64h-.75v-.67h.75v-.9l.86-.26Z"/>
    <path d="M259.28,279.03h.88v3.03h.02c.14-.25,.36-.48,.63-.63,.26-.15,.57-.24,.9-.24,.65,0,1.69,.4,1.69,2.06v2.88h-.88v-2.78c0-.78-.29-1.43-1.12-1.43-.57,0-1.01,.4-1.18,.87-.05,.13-.06,.26-.06,.42v2.92h-.88v-7.1Z"/>
    <path d="M268.23,284.96c0,.42,.02,.83,.07,1.16h-.79l-.07-.61h-.03c-.27,.38-.79,.72-1.48,.72-.98,0-1.48-.69-1.48-1.39,0-1.17,1.04-1.81,2.91-1.8v-.1c0-.39-.11-1.12-1.1-1.11-.46,0-.93,.13-1.27,.36l-.2-.59c.4-.25,.99-.42,1.6-.42,1.48,0,1.84,1.01,1.84,1.97v1.81Zm-.85-1.31c-.96-.02-2.05,.15-2.05,1.09,0,.58,.38,.84,.82,.84,.64,0,1.05-.4,1.19-.81,.03-.1,.04-.2,.04-.28v-.84Z"/>
    <path d="M269.65,282.59c0-.51,0-.91-.04-1.31h.78l.05,.8h.02c.24-.45,.8-.9,1.6-.9,.67,0,1.71,.4,1.71,2.06v2.88h-.88v-2.79c0-.78-.29-1.43-1.12-1.43-.57,0-1.02,.41-1.18,.9-.04,.11-.06,.26-.06,.41v2.91h-.88v-3.53Z"/>
    <path d="M277.25,285.12c.25,.15,.82,.4,1.44,.4,1.12,0,1.48-.71,1.47-1.26,0-.91-.83-1.3-1.68-1.3h-.49v-.66h.49c.64,0,1.45-.33,1.45-1.1,0-.52-.33-.98-1.14-.98-.52,0-1.02,.23-1.3,.43l-.24-.64c.35-.25,1.01-.5,1.71-.5,1.28,0,1.86,.76,1.86,1.55,0,.68-.41,1.25-1.2,1.54v.02c.8,.15,1.44,.75,1.45,1.66,0,1.04-.82,1.95-2.37,1.95-.73,0-1.37-.23-1.69-.44l.24-.67Z"/>
    <path d="M286.05,280.37h-2.48l-.25,1.67c.15-.02,.29-.03,.53-.03,.51,0,1,.1,1.4,.35,.51,.28,.93,.85,.93,1.66,0,1.27-1.01,2.22-2.42,2.22-.71,0-1.3-.2-1.62-.4l.22-.67c.27,.16,.8,.36,1.4,.36,.82,0,1.54-.54,1.53-1.41,0-.84-.57-1.43-1.86-1.43-.38,0-.67,.03-.91,.06l.42-3.12h3.11v.74Z"/>
    <path d="M291.63,282.8c0,2.21-.83,3.43-2.26,3.43-1.27,0-2.14-1.19-2.16-3.34,0-2.19,.95-3.38,2.27-3.38s2.15,1.22,2.15,3.29Zm-3.53,.1c0,1.69,.52,2.65,1.32,2.65,.89,0,1.32-1.05,1.32-2.71s-.4-2.65-1.32-2.65c-.76,0-1.32,.94-1.32,2.71Z"/>
    <path d="M294.83,279.03h.87v3.04h.02c.31-.54,.87-.88,1.65-.88,1.21,0,2.05,1,2.05,2.46,0,1.73-1.1,2.59-2.18,2.59-.7,0-1.26-.27-1.63-.9h-.02l-.05,.79h-.75c.02-.33,.04-.82,.04-1.25v-5.85Zm.87,5.16c0,.11,0,.22,.04,.32,.16,.61,.68,1.03,1.32,1.03,.93,0,1.47-.75,1.47-1.86,0-.97-.5-1.8-1.45-1.8-.59,0-1.15,.42-1.33,1.08-.03,.11-.05,.23-.05,.37v.86Z"/>
    <path d="M304.57,284.79c0,.51,0,.95,.04,1.33h-.78l-.05-.79h-.02c-.22,.39-.74,.9-1.6,.9-.76,0-1.67-.43-1.67-2.12v-2.83h.88v2.67c0,.92,.29,1.55,1.08,1.55,.59,0,1-.41,1.16-.81,.05-.12,.08-.28,.08-.45v-2.96h.88v3.51Z"/>
    <path d="M307.01,279.93c0,.3-.21,.54-.56,.54-.32,0-.53-.24-.53-.54s.22-.55,.55-.55,.54,.24,.54,.55Zm-.98,6.2v-4.84h.88v4.84h-.88Z"/>
    <path d="M308.37,279.03h.88v7.1h-.88v-7.1Z"/>
    <path d="M314.9,279.03v5.85c0,.43,.02,.92,.04,1.25h-.78l-.04-.84h-.03c-.26,.54-.84,.95-1.63,.95-1.17,0-2.08-.99-2.08-2.46-.01-1.61,1-2.59,2.17-2.59,.75,0,1.24,.35,1.46,.73h.02v-2.89h.87Zm-.87,4.23c0-.11,0-.26-.04-.37-.13-.55-.61-1.01-1.27-1.01-.91,0-1.45,.8-1.45,1.86,0,.98,.49,1.79,1.43,1.79,.59,0,1.13-.4,1.29-1.05,.03-.12,.04-.24,.04-.38v-.84Z"/>
    <path d="M317.35,279.93c0,.3-.21,.54-.56,.54-.32,0-.53-.24-.53-.54s.22-.55,.55-.55,.54,.24,.54,.55Zm-.98,6.2v-4.84h.88v4.84h-.88Z"/>
    <path d="M318.71,282.59c0-.51,0-.91-.04-1.31h.78l.05,.8h.02c.24-.45,.8-.9,1.6-.9,.67,0,1.71,.4,1.71,2.06v2.88h-.88v-2.79c0-.78-.29-1.43-1.12-1.43-.57,0-1.02,.41-1.18,.9-.04,.11-.06,.26-.06,.41v2.91h-.88v-3.53Z"/>
    <path d="M328.4,285.41c0,1.12-.23,1.79-.69,2.22-.48,.43-1.16,.58-1.77,.58s-1.22-.14-1.61-.4l.22-.68c.32,.21,.82,.39,1.42,.39,.9,0,1.56-.47,1.56-1.7v-.53h-.02c-.26,.45-.79,.81-1.54,.81-1.2,0-2.06-1.02-2.06-2.36,0-1.64,1.07-2.56,2.19-2.56,.84,0,1.29,.43,1.51,.83h.02l.03-.73h.78c-.03,.34-.04,.74-.04,1.32v2.81Zm-.88-2.22c0-.15,0-.28-.05-.39-.16-.52-.58-.94-1.23-.94-.84,0-1.44,.71-1.44,1.83,0,.95,.49,1.74,1.43,1.74,.55,0,1.04-.34,1.22-.9,.05-.15,.07-.32,.07-.47v-.87Z"/>
    <path d="M332.87,279.39v6.74h-.88v-6.74h.88Z"/>
    <path d="M334.39,279.49c.53-.09,1.16-.15,1.85-.15,1.25,0,2.14,.3,2.73,.84,.61,.55,.96,1.33,.96,2.42s-.35,2-.97,2.62c-.64,.63-1.68,.97-2.99,.97-.63,0-1.14-.03-1.58-.08v-6.62Zm.87,5.96c.22,.03,.54,.04,.88,.04,1.87,0,2.87-1.04,2.87-2.86,.01-1.59-.89-2.6-2.73-2.6-.45,0-.79,.04-1.02,.09v5.33Z"/>
    <path d="M340.9,285.23c.27,.16,.73,.34,1.17,.34,.63,0,.93-.31,.93-.72s-.25-.64-.89-.88c-.88-.32-1.29-.79-1.29-1.37,0-.78,.64-1.42,1.67-1.42,.49,0,.92,.13,1.18,.3l-.21,.64c-.19-.12-.54-.29-.99-.29-.52,0-.8,.3-.8,.66,0,.4,.28,.58,.91,.83,.83,.31,1.27,.73,1.27,1.45,0,.86-.67,1.46-1.8,1.46-.53,0-1.02-.14-1.36-.34l.21-.66Z"/>
  </g>
  <g>
    <path d="M114.08,274.91c-.31,.16-.96,.32-1.78,.32-1.9,0-3.32-1.2-3.32-3.42s1.43-3.54,3.52-3.54c.83,0,1.37,.18,1.6,.3l-.22,.71c-.32-.16-.79-.28-1.35-.28-1.58,0-2.63,1.01-2.63,2.78,0,1.66,.95,2.71,2.58,2.71,.54,0,1.08-.11,1.43-.28l.17,.7Z"/>
    <path d="M115.53,272.86c.02,1.19,.77,1.68,1.66,1.68,.63,0,1.02-.11,1.34-.25l.16,.63c-.31,.14-.85,.31-1.62,.31-1.49,0-2.38-.99-2.38-2.45s.86-2.6,2.27-2.6c1.59,0,2,1.38,2,2.27,0,.18-.01,.31-.03,.41h-3.4Zm2.58-.63c.01-.55-.23-1.42-1.22-1.42-.9,0-1.28,.81-1.35,1.42h2.57Z"/>
    <path d="M120.05,271.59c0-.51,0-.91-.04-1.31h.78l.05,.8h.02c.24-.45,.8-.9,1.6-.9,.67,0,1.71,.4,1.71,2.06v2.88h-.88v-2.79c0-.78-.29-1.43-1.12-1.43-.57,0-1.02,.41-1.18,.9-.04,.11-.06,.26-.06,.41v2.91h-.88v-3.53Z"/>
    <path d="M125.48,274.23c.27,.16,.73,.34,1.17,.34,.63,0,.93-.31,.93-.72s-.25-.64-.89-.88c-.88-.32-1.29-.79-1.29-1.37,0-.78,.64-1.42,1.67-1.42,.49,0,.92,.13,1.18,.3l-.21,.64c-.19-.12-.54-.29-.99-.29-.52,0-.8,.3-.8,.66,0,.4,.28,.58,.91,.83,.83,.31,1.27,.73,1.27,1.45,0,.86-.67,1.46-1.8,1.46-.53,0-1.02-.14-1.36-.34l.21-.66Z"/>
    <path d="M133.61,273.79c0,.51,.01,.95,.04,1.33h-.78l-.05-.79h-.02c-.22,.39-.74,.9-1.6,.9-.76,0-1.67-.43-1.67-2.12v-2.83h.88v2.67c0,.92,.29,1.55,1.08,1.55,.59,0,1-.41,1.16-.81,.05-.12,.08-.28,.08-.45v-2.96h.88v3.51Z"/>
    <path d="M134.95,274.23c.27,.16,.73,.34,1.17,.34,.63,0,.93-.31,.93-.72s-.25-.64-.89-.88c-.88-.32-1.29-.79-1.29-1.37,0-.78,.64-1.42,1.67-1.42,.49,0,.92,.13,1.18,.3l-.21,.64c-.19-.12-.54-.29-.99-.29-.52,0-.8,.3-.8,.66,0,.4,.28,.58,.91,.83,.83,.31,1.27,.73,1.27,1.45,0,.86-.67,1.46-1.8,1.46-.53,0-1.02-.14-1.36-.34l.21-.66Z"/>
    <path d="M142.21,269.13v1.16h1.26v.67h-1.26v2.61c0,.6,.17,.94,.66,.94,.24,0,.38-.02,.51-.06l.04,.67c-.17,.06-.44,.12-.78,.12-.41,0-.74-.14-.95-.37-.24-.27-.34-.7-.34-1.27v-2.64h-.75v-.67h.75v-.9l.86-.26Z"/>
    <path d="M144.46,271.79c0-.57,0-1.06-.04-1.51h.77l.04,.96h.03c.22-.65,.76-1.06,1.35-1.06,.09,0,.16,.01,.24,.02v.83c-.09-.02-.18-.02-.3-.02-.62,0-1.06,.46-1.18,1.12-.02,.12-.03,.27-.03,.41v2.58h-.88v-3.33Z"/>
    <path d="M151.08,273.96c0,.42,.02,.83,.07,1.16h-.79l-.07-.61h-.03c-.27,.38-.79,.72-1.48,.72-.98,0-1.48-.69-1.48-1.39,0-1.17,1.04-1.81,2.91-1.8v-.1c0-.39-.11-1.12-1.1-1.11-.46,0-.93,.13-1.27,.36l-.2-.59c.4-.25,.99-.42,1.6-.42,1.48,0,1.84,1.01,1.84,1.97v1.81Zm-.85-1.31c-.96-.02-2.05,.15-2.05,1.09,0,.58,.38,.84,.82,.84,.64,0,1.05-.4,1.19-.81,.03-.1,.04-.2,.04-.28v-.84Z"/>
    <path d="M155.95,274.95c-.23,.11-.74,.28-1.39,.28-1.46,0-2.41-.99-2.41-2.47s1.02-2.58,2.6-2.58c.52,0,.98,.13,1.22,.26l-.2,.67c-.21-.11-.54-.23-1.02-.23-1.11,0-1.71,.83-1.71,1.83,0,1.12,.72,1.81,1.68,1.81,.5,0,.83-.12,1.08-.23l.15,.66Z"/>
    <path d="M158.17,269.13v1.16h1.26v.67h-1.26v2.61c0,.6,.17,.94,.66,.94,.24,0,.38-.02,.51-.06l.04,.67c-.17,.06-.44,.12-.78,.12-.41,0-.74-.14-.95-.37-.24-.27-.34-.7-.34-1.27v-2.64h-.75v-.67h.75v-.9l.86-.26Z"/>
    <path d="M162.89,270.29l.65,2.46c.13,.54,.26,1.04,.35,1.54h.03c.11-.49,.27-1.01,.43-1.53l.79-2.47h.74l.75,2.42c.18,.58,.32,1.09,.43,1.58h.03c.08-.49,.21-1,.37-1.57l.69-2.43h.87l-1.56,4.84h-.8l-.74-2.31c-.17-.54-.31-1.02-.43-1.59h-.02c-.12,.58-.27,1.08-.44,1.6l-.78,2.3h-.8l-1.46-4.84h.9Z"/>
    <path d="M170.88,268.93c0,.3-.21,.54-.56,.54-.32,0-.53-.24-.53-.54s.22-.55,.55-.55,.54,.24,.54,.55Zm-.98,6.2v-4.84h.88v4.84h-.88Z"/>
    <path d="M173.3,269.13v1.16h1.26v.67h-1.26v2.61c0,.6,.17,.94,.66,.94,.24,0,.38-.02,.51-.06l.04,.67c-.17,.06-.44,.12-.78,.12-.41,0-.74-.14-.95-.37-.24-.27-.34-.7-.34-1.27v-2.64h-.75v-.67h.75v-.9l.86-.26Z"/>
    <path d="M175.55,268.03h.88v3.03h.02c.14-.25,.36-.48,.63-.63,.26-.15,.57-.24,.9-.24,.65,0,1.69,.4,1.69,2.06v2.88h-.88v-2.78c0-.78-.29-1.43-1.12-1.43-.57,0-1.01,.4-1.18,.87-.05,.13-.06,.26-.06,.42v2.92h-.88v-7.1Z"/>
    <path d="M183.22,268.03h.88v7.1h-.88v-7.1Z"/>
    <path d="M186.07,272.86c.02,1.19,.77,1.68,1.66,1.68,.63,0,1.02-.11,1.34-.25l.16,.63c-.31,.14-.85,.31-1.62,.31-1.49,0-2.38-.99-2.38-2.45s.86-2.6,2.27-2.6c1.59,0,2,1.38,2,2.27,0,.18-.01,.31-.03,.41h-3.4Zm2.58-.63c.01-.55-.23-1.42-1.22-1.42-.9,0-1.28,.81-1.35,1.42h2.57Z"/>
    <path d="M190.47,274.23c.27,.16,.73,.34,1.17,.34,.63,0,.93-.31,.93-.72s-.25-.64-.89-.88c-.88-.32-1.29-.79-1.29-1.37,0-.78,.64-1.42,1.67-1.42,.49,0,.92,.13,1.18,.3l-.21,.64c-.19-.12-.54-.29-.99-.29-.52,0-.8,.3-.8,.66,0,.4,.28,.58,.91,.83,.83,.31,1.27,.73,1.27,1.45,0,.86-.67,1.46-1.8,1.46-.53,0-1.02-.14-1.36-.34l.21-.66Z"/>
    <path d="M194.43,274.23c.27,.16,.73,.34,1.17,.34,.63,0,.93-.31,.93-.72s-.25-.64-.89-.88c-.88-.32-1.29-.79-1.29-1.37,0-.78,.64-1.42,1.67-1.42,.49,0,.92,.13,1.18,.3l-.21,.64c-.19-.12-.54-.29-.99-.29-.52,0-.8,.3-.8,.66,0,.4,.28,.58,.91,.83,.83,.31,1.27,.73,1.27,1.45,0,.86-.67,1.46-1.8,1.46-.53,0-1.02-.14-1.36-.34l.21-.66Z"/>
    <path d="M110.41,280.13v1.16h1.26v.67h-1.26v2.61c0,.6,.17,.94,.66,.94,.24,0,.38-.02,.51-.06l.04,.67c-.17,.06-.44,.12-.78,.12-.41,0-.74-.14-.95-.37-.24-.27-.34-.7-.34-1.27v-2.64h-.75v-.67h.75v-.9l.86-.26Z"/>
    <path d="M112.66,279.03h.88v3.03h.02c.14-.25,.36-.48,.63-.63,.26-.15,.57-.24,.9-.24,.65,0,1.69,.4,1.69,2.06v2.88h-.88v-2.78c0-.78-.29-1.43-1.12-1.43-.57,0-1.01,.4-1.18,.87-.05,.13-.06,.26-.06,.42v2.92h-.88v-7.1Z"/>
    <path d="M121.61,284.96c0,.42,.02,.83,.07,1.16h-.79l-.07-.61h-.03c-.27,.38-.79,.72-1.48,.72-.98,0-1.48-.69-1.48-1.39,0-1.17,1.04-1.81,2.91-1.8v-.1c0-.39-.11-1.12-1.1-1.11-.46,0-.93,.13-1.27,.36l-.2-.59c.4-.25,.99-.42,1.6-.42,1.48,0,1.84,1.01,1.84,1.97v1.81Zm-.85-1.31c-.96-.02-2.05,.15-2.05,1.09,0,.58,.38,.84,.82,.84,.64,0,1.05-.4,1.19-.81,.03-.1,.04-.2,.04-.28v-.84Z"/>
    <path d="M123.03,282.59c0-.51,0-.91-.04-1.31h.78l.05,.8h.02c.24-.45,.8-.9,1.6-.9,.67,0,1.71,.4,1.71,2.06v2.88h-.88v-2.79c0-.78-.29-1.43-1.12-1.43-.57,0-1.02,.41-1.18,.9-.04,.11-.06,.26-.06,.41v2.91h-.88v-3.53Z"/>
    <path d="M130.63,285.12c.25,.15,.82,.4,1.44,.4,1.12,0,1.48-.71,1.47-1.26,0-.91-.83-1.3-1.68-1.3h-.49v-.66h.49c.64,0,1.45-.33,1.45-1.1,0-.52-.33-.98-1.14-.98-.52,0-1.02,.23-1.3,.43l-.24-.64c.35-.25,1.01-.5,1.71-.5,1.28,0,1.86,.76,1.86,1.55,0,.68-.41,1.25-1.2,1.54v.02c.8,.15,1.44,.75,1.45,1.66,0,1.04-.82,1.95-2.37,1.95-.73,0-1.37-.23-1.69-.44l.24-.67Z"/>
    <path d="M139.43,280.37h-2.48l-.25,1.67c.15-.02,.29-.03,.53-.03,.51,0,1,.1,1.4,.35,.51,.28,.93,.85,.93,1.66,0,1.27-1.01,2.22-2.42,2.22-.71,0-1.3-.2-1.62-.4l.22-.67c.27,.16,.8,.36,1.4,.36,.82,0,1.54-.54,1.53-1.41,0-.84-.57-1.43-1.86-1.43-.38,0-.67,.03-.91,.06l.42-3.12h3.11v.74Z"/>
    <path d="M145,282.8c0,2.21-.83,3.43-2.26,3.43-1.27,0-2.14-1.19-2.16-3.34,0-2.19,.95-3.38,2.27-3.38s2.15,1.22,2.15,3.29Zm-3.53,.1c0,1.69,.52,2.65,1.32,2.65,.89,0,1.32-1.05,1.32-2.71s-.4-2.65-1.32-2.65c-.76,0-1.32,.94-1.32,2.71Z"/>
    <path d="M148.21,279.03h.87v3.04h.02c.31-.54,.87-.88,1.65-.88,1.21,0,2.05,1,2.05,2.46,0,1.73-1.1,2.59-2.18,2.59-.7,0-1.26-.27-1.63-.9h-.02l-.05,.79h-.75c.02-.33,.04-.82,.04-1.25v-5.85Zm.87,5.16c0,.11,0,.22,.04,.32,.16,.61,.68,1.03,1.32,1.03,.93,0,1.47-.75,1.47-1.86,0-.97-.5-1.8-1.45-1.8-.59,0-1.15,.42-1.33,1.08-.03,.11-.05,.23-.05,.37v.86Z"/>
    <path d="M157.94,284.79c0,.51,.01,.95,.04,1.33h-.78l-.05-.79h-.02c-.22,.39-.74,.9-1.6,.9-.76,0-1.67-.43-1.67-2.12v-2.83h.88v2.67c0,.92,.29,1.55,1.08,1.55,.59,0,1-.41,1.16-.81,.05-.12,.08-.28,.08-.45v-2.96h.88v3.51Z"/>
    <path d="M160.39,279.93c0,.3-.21,.54-.56,.54-.32,0-.53-.24-.53-.54s.22-.55,.55-.55,.54,.24,.54,.55Zm-.98,6.2v-4.84h.88v4.84h-.88Z"/>
    <path d="M161.75,279.03h.88v7.1h-.88v-7.1Z"/>
    <path d="M168.27,279.03v5.85c0,.43,.02,.92,.04,1.25h-.78l-.04-.84h-.03c-.26,.54-.84,.95-1.63,.95-1.17,0-2.08-.99-2.08-2.46-.01-1.61,1-2.59,2.17-2.59,.75,0,1.24,.35,1.46,.73h.02v-2.89h.87Zm-.87,4.23c0-.11-.01-.26-.04-.37-.13-.55-.61-1.01-1.27-1.01-.91,0-1.45,.8-1.45,1.86,0,.98,.49,1.79,1.43,1.79,.59,0,1.13-.4,1.29-1.05,.03-.12,.04-.24,.04-.38v-.84Z"/>
    <path d="M170.73,279.93c0,.3-.21,.54-.56,.54-.32,0-.53-.24-.53-.54s.22-.55,.55-.55,.54,.24,.54,.55Zm-.98,6.2v-4.84h.88v4.84h-.88Z"/>
    <path d="M172.09,282.59c0-.51,0-.91-.04-1.31h.78l.05,.8h.02c.24-.45,.8-.9,1.6-.9,.67,0,1.71,.4,1.71,2.06v2.88h-.88v-2.79c0-.78-.29-1.43-1.12-1.43-.57,0-1.02,.41-1.18,.9-.04,.11-.06,.26-.06,.41v2.91h-.88v-3.53Z"/>
    <path d="M181.77,285.41c0,1.12-.23,1.79-.69,2.22-.48,.43-1.16,.58-1.77,.58s-1.22-.14-1.61-.4l.22-.68c.32,.21,.82,.39,1.42,.39,.9,0,1.56-.47,1.56-1.7v-.53h-.02c-.26,.45-.79,.81-1.54,.81-1.2,0-2.06-1.02-2.06-2.36,0-1.64,1.07-2.56,2.19-2.56,.84,0,1.29,.43,1.51,.83h.02l.03-.73h.78c-.03,.34-.04,.74-.04,1.32v2.81Zm-.88-2.22c0-.15,0-.28-.05-.39-.16-.52-.58-.94-1.23-.94-.84,0-1.44,.71-1.44,1.83,0,.95,.49,1.74,1.43,1.74,.55,0,1.04-.34,1.22-.9,.05-.15,.07-.32,.07-.47v-.87Z"/>
    <path d="M186.25,279.39v6.74h-.88v-6.74h.88Z"/>
    <path d="M187.77,279.49c.53-.09,1.16-.15,1.85-.15,1.25,0,2.14,.3,2.73,.84,.61,.55,.96,1.33,.96,2.42s-.35,2-.97,2.62c-.64,.63-1.68,.97-2.99,.97-.63,0-1.14-.03-1.58-.08v-6.62Zm.87,5.96c.22,.03,.54,.04,.88,.04,1.87,0,2.87-1.04,2.87-2.86,.01-1.59-.89-2.6-2.73-2.6-.45,0-.79,.04-1.02,.09v5.33Z"/>
    <path d="M194.28,285.23c.27,.16,.73,.34,1.17,.34,.63,0,.93-.31,.93-.72s-.25-.64-.89-.88c-.88-.32-1.29-.79-1.29-1.37,0-.78,.64-1.42,1.67-1.42,.49,0,.92,.13,1.18,.3l-.21,.64c-.19-.12-.54-.29-.99-.29-.52,0-.8,.3-.8,.66,0,.4,.28,.58,.91,.83,.83,.31,1.27,.73,1.27,1.45,0,.86-.67,1.46-1.8,1.46-.53,0-1.02-.14-1.36-.34l.21-.66Z"/>
  </g>
</svg>